<svg width="344" height="200" viewBox="0 0 344 200" fill="none" xmlns="http://www.w3.org/2000/svg">
<path d="M335.238 91.1607C336.327 91.8423 338.16 92.7445 338.119 94.2595C338.082 95.8241 336.635 96.361 335.292 96.4096C334.347 96.4505 333.393 96.3424 332.442 96.284C331.492 96.2421 330.544 96.2334 329.594 96.1916C327.628 96.1119 325.643 95.9836 323.672 95.8377C319.783 95.5594 315.887 95.1818 312.01 94.8362C310.122 94.6687 308.228 94.4019 306.326 94.2851C304.691 94.1852 302.887 94.0458 301.301 94.4748C300.303 94.7351 299.71 95.353 299.437 96.3336C298.974 98.0072 299.035 99.8317 298.907 101.551C298.644 105.423 298.299 109.3 297.92 113.179C297.809 114.35 297.594 115.742 296.308 116.186C294.908 116.67 294.01 115.562 293.266 114.543C291.068 111.47 288.902 108.377 286.864 105.21C285.837 103.628 284.742 102.032 283.86 100.374C283.297 99.3113 282.672 97.2386 284.321 96.7559C284.991 96.5655 285.51 96.8995 285.828 97.4785C286.241 98.2511 286.556 99.0629 286.969 99.8356C287.813 101.413 288.785 102.916 289.773 104.402C290.759 105.854 291.777 107.288 292.763 108.74C293.237 109.426 293.711 110.112 294.121 110.835C294.416 111.315 294.692 111.764 295.128 112.086C295.17 111.968 295.214 111.865 295.24 111.747C295.305 111.444 295.302 111.128 295.334 110.827C295.408 110.141 295.467 109.473 295.542 108.787C295.661 107.467 295.764 106.164 295.867 104.845C296.016 102.658 296.083 100.477 296.232 98.2906C296.374 96.2543 296.664 93.9263 298.446 92.6211C299.401 91.9313 300.597 91.6424 301.736 91.5231C303.701 91.3037 305.709 91.5304 307.661 91.6442C312.349 91.9403 317.03 92.3864 321.707 92.7663C323.912 92.9477 326.115 93.096 328.32 93.2775C329.975 93.426 331.623 93.4752 333.277 93.3412C332.828 93.0693 332.397 92.813 331.934 92.5753C330.886 92.0242 329.807 91.4916 328.745 90.9746C326.55 89.8784 324.326 88.8338 322.103 87.8058C318.118 85.9544 314.105 84.2044 310.061 82.4896C308.066 81.6472 306.04 80.8565 304.104 79.9107C303.179 79.4684 302.205 79.0291 301.387 78.4307C300.762 77.9868 300.291 77.3507 300.178 76.5765C299.9 74.7485 301.694 73.3594 302.927 72.3203C304.619 70.9042 306.383 69.5834 308.128 68.2139C309.762 66.9343 311.343 65.6081 312.959 64.3129C314.054 63.4485 315.097 62.5705 316.069 61.5972C315.172 61.8845 314.259 62.1728 313.364 62.4933C311.558 63.1351 309.751 63.7605 307.968 64.5007C307.174 64.8316 306.387 65.2785 305.574 65.5773C304.972 65.7968 304.304 65.7378 303.905 65.197C302.816 63.6844 304.915 62.6756 306.019 62.2427C307.821 61.5346 309.605 60.8109 311.409 60.1359C313.213 59.4609 315.036 58.8346 316.898 58.3056C317.96 57.9917 319.445 57.2696 320.512 57.8694C321.079 58.1839 321.452 58.8426 321.507 59.4709C321.544 60.0836 321.245 60.6336 320.859 61.1059C319.852 62.3141 318.582 63.289 317.398 64.3251C314.51 66.8445 311.514 69.2376 308.501 71.615C307.043 72.7676 305.533 73.9067 304.109 75.0904C303.887 75.2701 303.141 75.8308 303.191 76.1103C303.244 76.4395 304.044 76.7398 304.301 76.8737C306.048 77.7147 307.854 78.4523 309.63 79.225C311.44 80.0122 313.233 80.8005 315.043 81.5878C318.577 83.1342 322.114 84.7137 325.617 86.2953C328.899 87.7741 332.18 89.2528 335.224 91.1949L335.238 91.1607Z" fill="black"/>
<path d="M289.045 53.9841C288.868 53.812 288.163 53.9713 287.947 53.9678C287.515 53.9775 287.082 53.9541 286.665 53.9296C285.847 53.8797 285.043 53.7791 284.253 53.6278C280.925 53.0161 277.83 51.5925 274.8 50.1483C268.775 47.2909 263.022 43.9683 257.615 40.0595C252.172 36.1196 247.098 31.6752 242.386 26.893C239.888 24.3527 237.5 21.7225 235.19 19.0045C234.582 18.2937 233.973 17.5662 233.38 16.8378C232.787 16.1094 232.24 15.3117 231.599 14.6194C231.386 14.3997 231.274 14.1905 231.018 14.3557C230.746 14.5384 230.58 15.0804 230.447 15.3544C230.077 16.0917 229.706 16.8289 229.336 17.5662C226.008 24.0515 222.181 30.268 218.06 36.2699C215.983 39.2883 213.822 42.2787 211.606 45.1894C210.452 46.7057 209.261 48.1743 208.072 49.6595C207.423 50.4636 206.774 51.2677 206.141 52.0708C205.74 52.5773 205.22 53.0411 205.092 53.6804C205.891 55.3271 206.607 56.9953 207.471 58.6214C208.278 60.1346 209.182 61.6086 210.118 63.064C214.067 69.2224 218.798 74.8511 223.84 80.145C228.811 85.3436 234.186 90.0854 239.95 94.4045C240.665 94.9427 241.553 95.3374 242.189 95.9634C242.543 96.3076 242.786 96.7581 242.65 97.2484C242.516 97.7884 242.007 98.1519 241.541 98.4129C240.819 98.8392 240.043 99.2022 239.301 99.5633C235.816 101.288 232.314 103.014 228.831 104.772C225.365 106.529 221.882 108.287 218.377 109.963C217.505 110.381 216.632 110.784 215.76 111.202C215.065 111.527 214.357 111.903 213.583 112.017C212.118 112.255 211.116 111.352 210.159 110.38C205.053 105.14 200.657 99.2749 196.421 93.3169C194.222 90.2265 192.071 87.1165 190.031 83.9167C189.038 82.3483 188.061 80.7625 187.132 79.157C186.63 78.29 186.129 77.4231 185.643 76.5386C185.344 75.9917 185.047 75.4945 184.877 74.8899C184.813 74.6445 184.816 74.4283 184.576 74.5759C184.272 74.7772 184.469 74.9979 184.617 75.2548C185.061 75.9923 185.488 76.7308 185.916 77.4693C186.88 79.1059 187.859 80.7249 188.839 82.3439C190.868 85.6441 192.961 88.9071 195.07 92.1526C199.304 98.626 203.618 105.045 208.138 111.318C212.605 117.528 217.216 123.646 222.269 129.371C223.554 130.822 224.856 132.272 226.156 133.705C226.78 134.398 227.404 135.091 228.028 135.785L228.956 136.825C229.241 137.14 229.516 137.572 229.88 137.816C230.454 138.23 230.922 137.453 231.333 137.096C232.009 136.473 232.685 135.833 233.36 135.194C234.695 133.916 236.029 132.621 237.329 131.312C242.576 126.04 247.591 120.515 252.136 114.637C256.681 108.759 260.842 102.589 265.161 96.5418C269.479 90.4947 273.818 84.4963 277.668 78.1288C281.503 71.7788 284.87 65.1248 287.522 58.1821C287.895 57.212 288.251 56.2263 288.589 55.2251C288.687 54.9366 288.803 54.647 288.885 54.3594C288.912 54.2581 288.976 53.9384 289.009 53.9364L289.045 53.9841ZM306.717 141.91C307.336 145.513 306.091 149.095 303.592 151.724C300.64 154.829 296.453 156.763 292.468 158.186C287.751 159.869 282.837 161.066 277.925 162.014C272.882 162.986 267.769 163.63 262.656 164.008C260.058 164.199 257.451 164.225 254.877 164.531C253.457 164.701 252.06 164.952 250.682 165.252C249.764 165.458 248.411 165.623 247.651 166.235C246.686 167.042 246.948 168.339 246.649 169.437C246.417 170.266 246.016 171.055 245.528 171.766C244.643 173.066 243.455 174.302 241.8 174.42C241.039 174.466 240.297 174.295 239.658 173.902C238.88 173.417 238.333 172.354 237.291 172.7C236.46 172.983 235.897 173.832 234.962 174.038C234.454 174.152 233.952 174.1 233.459 173.914C232.423 173.545 231.668 172.61 230.534 172.546C229.75 172.511 229.049 172.737 228.256 172.536C227.125 172.255 226.345 171.455 226.028 170.344C224.974 166.686 227.418 162.598 229.699 159.932C232.567 156.55 236.457 154.102 240.243 151.861C244.431 149.395 248.806 147.283 253.297 145.431C262.41 141.685 271.793 139.102 281.43 137.152C280.748 136.595 279.697 136.26 278.977 135.889C277.928 135.321 276.879 134.737 275.845 134.135C273.932 133.021 272.065 131.839 270.227 130.588C266.517 128.071 262.976 125.345 259.56 122.462C258.648 121.687 257.737 120.911 256.841 120.118C255.787 119.185 254.698 117.672 253.234 118.742C252.247 119.467 251.359 120.984 250.551 121.914C249.776 122.825 248.984 123.738 248.207 124.633C244.821 128.512 241.309 132.266 237.57 135.818C230.673 142.372 223.278 148.39 215.483 153.851C199.273 165.226 181.647 174.095 163.044 180.83C153.401 184.326 143.657 187.812 133.664 190.199C128.864 191.339 123.998 192.217 119.072 192.667C114.808 193.059 110.186 193.856 106.724 190.776C103.649 188.038 102.018 183.65 100.496 179.937C98.5082 175.138 96.9431 170.181 95.5746 165.178C94.912 162.759 94.2991 160.337 93.7016 157.896C93.4384 156.849 93.262 155.862 93.1302 154.79C92.9606 153.371 92.4714 152.437 91.5252 151.364C88.4003 147.815 85.2062 144.22 81.3465 141.43C77.7463 138.808 73.6489 136.481 69.2398 135.586C67.9611 135.332 66.6729 135.194 65.3772 135.206C64.5959 135.204 63.2085 135.073 62.5774 135.626C61.8033 136.288 62.2128 137.826 62.3169 138.717C62.4639 140.038 62.643 141.34 62.8552 142.64C63.7234 147.889 65.1009 153.041 66.5758 158.153C67.3117 160.684 68.0643 163.215 68.8002 165.746C69.2634 167.347 69.6984 169.032 69.4019 170.712C68.7702 174.258 65.1204 176.275 62.0864 177.49C59.8467 178.375 57.4968 178.817 55.0998 179.029C53.8433 179.139 52.5662 179.184 51.3067 179.244C50.6765 179.266 50.0316 179.322 49.3993 179.31C48.9337 179.305 48.91 179.19 48.571 179.627C48.0618 180.273 48.15 181.447 47.8652 182.229C47.6241 182.909 47.2631 183.529 46.8503 184.119C45.808 185.562 44.3626 186.664 42.8937 187.651C39.1736 190.155 34.9334 191.759 30.5258 192.527C26.168 193.291 21.3502 193.601 17.1085 192.181C13.868 191.098 10.3778 188.918 10.0505 185.181C9.71607 181.329 12.717 178.204 15.6539 176.214C17.4575 174.99 19.4614 174.054 21.5291 173.346C23.6133 172.637 25.828 172.436 27.8988 171.778C28.812 171.49 28.389 171.366 27.9306 170.662C27.7479 170.391 27.5787 170.069 27.4757 169.743C27.2728 169.14 27.2832 168.491 27.4446 167.867C27.9378 166.141 29.6184 164.809 31.1492 164.018C32.0513 163.547 33.0295 163.238 34.0129 163.012C34.8328 162.829 36.1347 162.916 36.6448 162.287C37.2939 161.483 37.1333 159.664 37.2704 158.642C37.4422 157.368 37.6304 156.094 37.8528 154.834C38.6683 150.213 39.8892 145.701 41.5508 141.328C43.0253 137.433 44.9375 133.626 47.7386 130.497C48.3917 129.759 49.1326 129.099 49.8394 128.425C50.9701 127.342 50.6907 126.029 50.7023 124.582C50.7287 122.287 50.8388 120.004 51.0835 117.745C51.5809 113.36 52.6392 108.908 54.7957 105.02C58.4352 98.4658 65.0451 95.1047 72.427 94.871C80.97 94.5999 89.8528 97.9978 97.036 102.413C100.438 104.516 103.63 106.981 106.523 109.73C107.988 111.12 109.391 112.597 110.714 114.129C111.429 114.949 112.213 116.364 113.358 116.61C114.419 116.845 115.78 115.981 116.702 115.575C121.492 113.439 126.203 111.107 130.841 108.664C131.501 108.325 132.145 107.97 132.805 107.614C133.626 107.181 133.776 107.189 133.933 105.949C134.067 104.877 134.032 103.749 134.049 102.668C134.084 100.788 134.186 98.9201 134.421 97.0443C135.27 89.9787 137.846 83.1569 142.466 77.6898C147.877 71.2937 155.776 66.7238 163.864 64.702C168.234 63.6046 172.754 63.3127 177.227 63.8878C179.756 64.2157 182.236 64.8126 184.646 65.6297C185.783 66.0092 187.036 66.6642 188.256 66.2242C189.409 65.7883 190.347 64.5511 191.177 63.7028C204.887 49.7705 217.033 33.8891 226.184 16.5782C227.392 14.3106 228.464 11.985 229.569 9.67381C230.13 8.50946 230.818 7.25423 231.972 6.55235C233.062 5.88762 234.343 5.9093 235.554 6.15129C237.808 6.59567 240.042 7.52328 242.142 8.42586C251.323 12.3541 260.034 17.2915 268.406 22.6817C272.42 25.2627 276.372 27.9471 280.28 30.7008C284.188 33.471 288.024 36.4118 291.187 40.0418C293.671 42.8988 295.767 46.4609 294.474 50.3458C293.687 52.704 292.343 54.9299 291.455 57.261C290.566 59.5922 289.678 61.9233 288.687 64.2108C284.852 73.0041 279.92 81.2658 274.517 89.1573C273.129 91.1865 271.704 93.1846 270.263 95.1672C269.511 96.1936 268.333 97.3125 268.281 98.6453C268.231 99.7453 268.838 100.971 269.281 101.975C271.14 106.299 274.316 109.862 277.717 113.029C281.415 116.444 285.393 119.542 289.37 122.607C293.206 125.565 297.187 128.43 300.635 131.827C303.429 134.582 306.011 137.948 306.684 141.912L306.717 141.91ZM302.891 147.03C303.76 145.199 303.748 143.105 303.167 141.196C302.462 138.895 300.949 136.977 299.299 135.265C297.559 133.443 295.661 131.764 293.719 130.17C289.8 126.952 285.68 123.979 281.731 120.812C277.904 117.738 274.153 114.559 270.998 110.779C269.421 108.897 267.95 106.859 266.851 104.649C266.567 104.068 266.298 103.47 266.094 102.851C266.032 102.655 265.895 101.766 265.63 101.782C265.464 101.792 265.35 102.098 265.274 102.219C265.124 102.478 264.938 102.705 264.77 102.948C264.386 103.47 264.004 104.008 263.636 104.529C261.998 106.823 260.36 109.133 258.705 111.428C258.277 112.036 257.832 112.645 257.402 113.236C257.219 113.497 257.034 113.741 256.85 113.984C256.65 114.246 256.368 114.546 256.289 114.883C256.171 115.389 256.793 115.783 257.127 116.078C257.567 116.484 258.023 116.871 258.462 117.26C262.167 120.508 265.995 123.599 270.008 126.446C274.037 129.292 278.249 131.861 282.67 134.035C283.767 134.583 284.878 135.097 286.006 135.593C286.586 135.84 287.168 136.121 287.765 136.367C288.157 136.526 288.55 136.718 288.836 137.033C289.441 137.694 289.415 138.909 288.651 139.454C287.887 140.016 286.662 139.825 285.797 139.811C283.124 140.123 280.459 140.585 277.818 141.161C272.619 142.293 267.475 143.803 262.41 145.507C257.589 147.131 252.833 148.999 248.266 151.239C243.827 153.404 239.476 155.913 235.554 158.911C233.853 160.195 232.248 161.672 231.043 163.441C230.448 164.324 229.957 165.268 229.603 166.271C229.433 166.763 229.299 167.286 229.163 167.777C229.066 168.098 228.863 168.593 228.984 168.934C229.162 169.406 229.806 169.333 230.122 169.065C230.486 168.76 230.707 168.298 230.915 167.886C231.211 167.303 231.456 166.673 231.718 166.075C231.938 165.58 232.137 165.036 232.512 164.647C233.2 163.924 234.313 163.923 235.034 164.577C235.861 165.324 235.545 166.407 235.183 167.294C234.924 167.941 234.596 168.576 234.286 169.21C234.124 169.552 233.629 170.43 234.302 170.572C234.758 170.677 235.295 169.946 235.577 169.663C235.937 169.309 236.298 168.954 236.589 168.538C236.942 168.067 237.127 167.557 237.276 167C237.385 166.594 237.543 166.202 237.841 165.902C238.481 165.231 239.681 165.274 240.335 165.916C240.97 166.525 240.743 167.437 240.607 168.193C240.484 168.915 240.273 170.092 240.921 170.634C241.201 170.866 241.675 171.003 242.014 170.833C242.288 170.7 242.467 170.357 242.584 170.1C242.761 169.724 242.887 169.351 243.047 168.975C243.221 168.549 243.496 168.15 243.584 167.679C243.685 167.158 243.552 166.618 243.602 166.083C243.661 165.68 243.769 165.275 243.964 164.93C244.337 164.226 244.971 163.722 245.681 163.363C246.552 162.928 247.5 162.671 248.432 162.414C249.691 162.072 250.97 161.794 252.254 161.583C255.001 161.117 257.788 161.03 260.568 160.827C263.299 160.644 266.043 160.394 268.765 160.062C274.292 159.393 279.782 158.394 285.16 156.903C290.031 155.559 295.009 154.059 299.164 151.063C300.66 149.975 302.059 148.66 302.854 146.966L302.891 147.03ZM240.462 97.0659L240.493 97.0308C240.454 96.9334 240.122 96.6711 240 96.5788C239.144 95.8997 238.243 95.2898 237.355 94.6292C237.077 94.43 236.814 94.2133 236.535 93.9976C229.666 88.7319 223.48 82.6932 217.78 76.1596C212.205 69.7679 207.261 62.806 203.78 55.0568C203.319 55.4006 202.88 55.8263 202.799 56.4129C202.707 57.0834 203.048 57.7773 203.349 58.3407C207.218 65.6507 212.251 72.4244 217.886 78.4467C220.714 81.4823 223.73 84.34 226.888 87.0563C228.483 88.4217 230.127 89.7509 231.785 91.0461C232.622 91.6931 233.458 92.3236 234.293 92.9376C234.937 93.4136 235.627 93.8369 236.272 94.3294C236.481 94.4829 236.708 94.652 236.902 94.8396C237.569 95.4139 237.919 96.2568 237.64 97.1215C237.443 97.7152 237.001 98.0912 236.468 98.3563C236.291 98.4502 236.113 98.5276 235.917 98.5893C233.708 99.422 231.498 100.255 229.326 101.168C224.805 103.072 220.384 105.253 215.997 107.448C214.804 108.053 213.448 108.717 212.187 107.93C211.495 107.49 210.958 106.858 210.439 106.241C209.67 105.357 208.919 104.489 208.151 103.605C205.109 100.051 202.13 96.4428 199.277 92.7274C196.409 89.0295 193.669 85.2408 191.088 81.3426C189.806 79.393 188.506 77.4278 187.384 75.3854C187.103 74.8541 186.822 74.3393 186.54 73.808C186.484 73.7117 186.116 72.8532 185.944 73.2958C185.9 73.3982 186.102 73.7017 186.157 73.7981C186.288 74.0394 186.404 74.2983 186.535 74.5396C186.8 75.0719 187.081 75.5867 187.362 76.118C189.626 80.2682 192.229 84.2481 194.877 88.1588C197.524 92.053 200.283 95.8573 203.168 99.5707C204.611 101.427 206.086 103.266 207.592 105.069C208.345 105.97 209.114 106.87 209.883 107.754C210.419 108.37 210.939 109.003 211.554 109.547C211.923 109.874 212.341 110.181 212.842 110.233C213.344 110.286 213.851 110.139 214.322 109.96C215.151 109.661 215.941 109.247 216.748 108.865C217.878 108.314 218.991 107.765 220.121 107.214C224.64 104.994 229.158 102.774 233.677 100.554C234.709 100.042 235.742 99.5308 236.774 99.0191C236.855 98.9809 236.951 98.9252 237.049 98.886C238.049 98.393 239.119 97.9455 240.08 97.3551C240.209 97.2808 240.337 97.2065 240.43 97.1011L240.462 97.0659ZM232.897 96.2138C233.046 95.9222 232.569 95.7351 232.38 95.6303C232.001 95.4207 231.668 95.1418 231.336 94.8795C227.938 92.2943 224.647 89.5695 221.496 86.6701C215.138 80.7915 209.467 74.1896 204.672 66.9692C203.427 65.0839 202.245 63.1448 201.207 61.1138C200.962 60.6302 200.747 60.1114 200.438 59.6649C200.328 59.5053 200.235 59.3448 200.037 59.3569C199.689 59.3781 199.26 59.9859 199.042 60.2153C198.635 60.6389 198.229 61.0626 197.823 61.4862C196.118 63.2355 194.395 64.9693 192.673 66.7031C191.842 67.5348 191.012 68.3666 190.182 69.1983C189.837 69.5351 189.376 69.879 189.135 70.2925C188.941 70.6534 189 71.0819 189.073 71.4598C189.541 72.3287 189.992 73.1822 190.493 74.0325C195.041 81.8497 200.502 89.0959 206.213 96.0777C207.667 97.8506 209.119 99.5904 210.606 101.345C211.233 102.088 211.844 102.848 212.52 103.572C212.84 103.918 213.217 104.377 213.69 104.498C214.095 104.606 214.564 104.394 214.936 104.222C215.81 103.837 216.647 103.387 217.503 102.969C219.633 101.925 221.781 100.897 223.965 99.9159C226.132 98.9362 228.318 97.9886 230.524 97.0896C231.026 96.8762 231.542 96.6121 232.066 96.4805C232.262 96.4353 232.778 96.4371 232.898 96.2303L232.897 96.2138ZM227.125 140.61C227.146 140.409 227.083 140.197 227.023 140.018C226.899 139.626 226.808 139.216 226.392 139.209C223.593 141.008 220.923 143.015 218.215 144.942C217.005 145.814 215.777 146.67 214.567 147.541C213.962 147.977 213.356 148.396 212.734 148.833C212.464 149.032 211.32 149.617 211.441 149.975C211.484 150.139 211.814 150.368 211.922 150.511C212.012 150.622 212.103 150.749 212.194 150.877C212.356 151.083 212.524 151.389 212.823 151.387C213.106 151.386 213.373 151.137 213.596 150.974C213.834 150.794 214.089 150.612 214.328 150.448C214.917 150.013 215.507 149.595 216.096 149.177C218.453 147.487 220.811 145.815 223.078 144.014C224.204 143.131 225.33 142.232 226.49 141.363C226.744 141.165 227.081 140.978 227.143 140.625L227.125 140.61ZM224.053 136.559C224.071 136.308 223.821 136.024 223.679 135.867C223.428 135.566 223.162 135.3 222.896 135.017C222.381 134.483 221.637 133.465 220.835 133.397C220.518 133.367 220.195 133.52 219.905 133.67C219.374 133.952 218.879 134.298 218.402 134.643C215.292 136.793 212.22 139.025 209.092 141.16C208.342 141.671 207.556 142.134 206.858 142.676C206.317 143.074 206.207 143.447 206.606 144.004C207.115 144.721 207.736 145.365 208.278 146.063C208.674 146.571 209.054 147.079 209.401 147.59C209.463 147.52 209.509 147.45 209.571 147.38C209.883 147.045 210.297 146.754 210.662 146.466C211.469 145.802 212.279 145.171 213.088 144.54C214.708 143.311 216.365 142.13 218.039 140.964C219.538 139.925 221.055 138.902 222.554 137.863C222.937 137.607 223.338 137.367 223.685 137.063C223.827 136.938 224.033 136.776 224.054 136.575L224.053 136.559ZM218.503 130.581C218.753 130.317 218.458 130.118 218.278 129.88C218.096 129.625 217.931 129.369 217.75 129.131C217.441 128.701 217.132 128.255 216.791 127.843C216.397 127.385 216.011 127.043 215.455 127.193C214.524 127.466 213.671 128.2 212.907 128.745C211.536 129.709 210.183 130.689 208.83 131.669C207.446 132.684 206.061 133.683 204.64 134.65C203.939 135.142 203.219 135.601 202.499 136.06C202.211 136.244 201.939 136.41 201.632 136.562C201.472 136.655 201.343 136.729 201.286 136.882C201.828 137.597 202.37 138.312 202.911 139.01C203.218 139.407 203.525 139.804 203.847 140.183C203.902 140.263 203.994 140.407 204.063 140.453C204.201 140.527 204.068 140.535 204.247 140.475C204.393 140.416 204.582 140.238 204.709 140.147C206.351 139 207.994 137.87 209.636 136.722C211.119 135.685 212.619 134.663 214.102 133.625C214.852 133.114 215.584 132.587 216.334 132.076C216.716 131.804 217.1 131.548 217.482 131.275C217.801 131.056 218.221 130.848 218.485 130.549L218.503 130.581ZM213.3 124.283C213.521 123.821 212.919 123.226 212.666 122.892C212.305 122.416 211.959 121.922 211.567 121.48C211.173 121.022 210.711 120.535 210.136 120.637C209.28 120.772 208.409 121.49 207.69 121.966C204.75 123.907 201.867 125.96 198.929 127.934C198.243 128.408 197.387 128.809 196.792 129.411C196.354 129.853 196.594 130.254 196.919 130.683C197.408 131.334 197.881 132.004 198.354 132.673C198.591 133.024 198.845 133.374 199.083 133.726C199.193 133.902 199.286 134.062 199.472 134.117C201.12 133.07 202.677 131.894 204.271 130.767C205.912 129.603 207.569 128.438 209.227 127.274C209.993 126.745 210.757 126.2 211.523 125.671C211.905 125.399 212.288 125.143 212.671 124.87C212.894 124.723 213.182 124.54 213.301 124.3L213.3 124.283ZM207.729 117.958C208.092 117.653 208.337 117.306 208.094 116.855C207.829 116.339 207.342 115.97 207.03 115.491C206.771 115.058 206.53 114.657 206.071 114.485C204.401 115.451 202.807 116.562 201.21 117.624C199.532 118.74 197.854 119.839 196.177 120.955C195.426 121.45 194.675 121.944 193.923 122.422C193.555 122.661 193.17 122.883 192.82 123.137C192.66 123.247 192.454 123.409 192.416 123.611C192.383 123.879 192.634 124.179 192.78 124.386C192.962 124.658 193.144 124.913 193.31 125.185C193.566 125.568 193.807 125.969 194.063 126.353C194.155 126.497 194.246 126.641 194.37 126.766C194.37 126.766 194.476 126.859 194.477 126.876C194.477 126.876 194.477 126.876 194.51 126.874C194.51 126.874 194.51 126.874 194.493 126.875C194.493 126.875 194.607 126.835 194.623 126.817C195.463 126.417 196.203 125.74 196.969 125.228C199.895 123.321 202.711 121.255 205.618 119.316C206.288 118.86 207.045 118.465 207.661 117.945L207.729 117.958ZM209.579 153.513C209.837 152.832 208.803 151.964 208.444 151.521C207.027 149.812 205.658 148.084 204.289 146.339C198.915 139.437 193.906 132.246 189.169 124.872C184.414 117.483 179.932 109.928 175.594 102.298C173.436 98.5233 171.326 94.7128 169.233 90.9178C168.954 90.4196 168.69 89.9039 168.41 89.4057C168.299 89.213 168.14 88.7905 167.918 88.6877C167.627 88.5559 167.202 88.9474 166.996 89.1095C166.567 89.4348 166.139 89.7767 165.71 90.102C163.916 91.4745 162.088 92.849 160.257 94.1738C156.645 96.8039 152.942 99.3231 149.183 101.729C148.207 102.354 147.23 102.962 146.254 103.57C145.485 104.049 145.118 104.57 145.207 105.495C145.416 107.56 145.743 109.651 146.215 111.667C146.686 113.666 147.337 115.62 148.327 117.422C149.281 119.158 150.685 120.652 151.122 122.636C151.809 125.736 150.078 129.248 146.647 129.408C145.82 129.458 145.073 129.204 144.251 129.088C143.53 128.983 143.306 129.395 143.078 130.024C142.447 131.658 141.629 133.519 140.023 134.432C138.658 135.213 137.197 134.704 136.403 133.389C135.497 131.898 135.402 130.059 135.298 128.354C134.436 128.656 133.548 128.826 132.627 128.699C130.884 128.473 129.598 127.006 129.673 125.239C129.71 124.207 130.189 123.33 130.718 122.467C131.367 121.397 132.103 120.371 132.926 119.424C133.672 118.58 134.253 117.747 134.484 116.636C134.689 115.626 134.626 114.6 134.514 113.576C134.45 113.065 134.385 112.553 134.338 112.041C134.296 111.628 134.129 111.073 134.204 110.67C134.204 110.67 134.122 110.691 134.09 110.71C133.961 110.768 133.833 110.859 133.705 110.933C133.256 111.209 132.755 111.439 132.288 111.684C127.566 114.116 122.79 116.468 117.918 118.609C113.077 120.732 108.132 122.762 103.008 124.055C102.403 124.208 101.813 124.344 101.205 124.464C101.074 124.489 100.942 124.513 100.812 124.555C100.729 124.56 100.666 124.63 100.649 124.614C100.663 124.846 101.053 125.238 101.144 125.382C101.29 125.589 101.42 125.814 101.55 126.039C101.848 126.552 102.128 127.067 102.393 127.6C103.492 129.81 104.334 132.168 105.271 134.455C106.283 136.886 107.149 139.376 107.952 141.904C108.363 143.208 108.76 144.53 109.139 145.837C109.328 146.49 109.518 147.16 109.691 147.814C109.841 148.354 109.971 148.861 110.299 149.34C110.937 150.265 111.914 151.02 112.711 151.819C113.578 152.68 114.429 153.559 115.247 154.44C116.884 156.202 118.426 158.052 119.811 160.045C121.159 161.991 122.418 164.108 123.252 166.334C124.024 168.365 124.217 170.713 123.276 172.732C122.569 174.221 121.216 175.201 119.603 175.465C118.616 175.625 117.706 175.431 116.735 175.308C116.534 175.287 116.148 175.227 115.993 175.403C115.853 175.561 115.89 175.908 115.902 176.106C115.956 177.25 116.109 178.404 116.163 179.564C116.202 180.742 116.19 181.923 116.096 183.108C115.916 185.33 115.384 187.506 114.494 189.538C116.44 189.569 118.381 189.501 120.33 189.299C124.771 188.813 129.213 187.794 133.554 186.748C137.911 185.702 142.224 184.475 146.48 183.135C155.025 180.438 163.39 177.235 171.659 173.84C175.794 172.142 179.944 170.426 184.022 168.599C188.114 166.754 192.075 164.651 195.943 162.404C199.812 160.158 203.572 157.768 207.312 155.313C207.824 154.983 208.319 154.653 208.829 154.306C209.116 154.106 209.501 153.866 209.63 153.526L209.579 153.513ZM203.413 112.32C203.701 112.137 204.201 111.89 204.093 111.481C203.98 110.989 203.502 110.503 203.212 110.105C202.993 109.786 202.756 109.452 202.457 109.187C202.299 109.047 202.179 108.988 202.031 109.014C201.686 109.068 201.351 109.305 201.08 109.487C200.552 109.835 200.026 110.2 199.5 110.564C198.191 111.458 196.9 112.368 195.593 113.279C194.302 114.188 192.995 115.099 191.703 115.992C191.049 116.448 190.38 116.92 189.726 117.376C189.407 117.595 188.968 117.754 188.944 118.171C189.23 118.769 189.516 119.383 189.931 119.923C190.093 120.129 190.438 120.607 190.74 120.638C190.973 120.657 191.254 120.358 191.429 120.231C192.015 119.746 192.673 119.357 193.312 118.936C194.063 118.441 194.798 117.964 195.549 117.47C198.17 115.748 200.791 114.026 203.43 112.336L203.413 112.32ZM200.219 106C200.26 105.848 199.955 105.484 199.881 105.372C199.458 104.7 199.036 104.044 198.581 103.39C198.416 103.134 198.235 102.896 198.07 102.64C197.924 102.433 197.75 102.028 197.469 102.062C197.255 102.092 197.036 102.321 196.877 102.43C196.574 102.648 196.272 102.866 195.969 103.084C195.412 103.484 194.855 103.883 194.313 104.265C193.102 105.12 191.892 105.992 190.681 106.863C189.519 107.699 188.372 108.516 187.21 109.352C186.605 109.788 186 110.223 185.394 110.643C184.996 110.933 184.737 111.048 184.835 111.574C185.203 112.15 185.555 112.743 185.922 113.319C186.106 113.607 186.29 113.895 186.474 114.183C186.584 114.359 186.941 115.036 187.143 115.073C187.31 115.096 187.608 114.796 187.72 114.722C188.054 114.486 188.39 114.266 188.725 114.03C189.395 113.573 190.049 113.118 190.719 112.662C193.111 111.003 195.503 109.345 197.895 107.687C198.501 107.268 199.124 106.848 199.73 106.428C199.857 106.338 200.18 106.185 200.22 106.016L200.219 106ZM195.547 99.1541C195.618 98.6844 195.061 98.0036 194.839 97.6349C194.597 97.2009 194.338 96.7679 194.063 96.3525C193.882 96.0976 193.699 95.8262 193.455 95.6416C193.299 95.5348 193.163 95.4932 192.998 95.5033C192.403 95.5727 191.725 96.1626 191.233 96.5416C190.025 97.4462 188.852 98.3819 187.645 99.3031C186.311 100.332 184.96 101.345 183.627 102.373C182.992 102.861 182.357 103.365 181.721 103.836C181.323 104.126 180.973 104.38 180.819 104.855C181.243 105.527 181.633 106.201 182.056 106.874C182.278 107.242 182.515 107.593 182.769 107.944C182.879 108.103 182.92 108.234 183.118 108.205C183.234 108.198 183.375 108.056 183.47 107.984C184.985 106.928 186.464 105.84 187.977 104.751C189.314 103.789 190.668 102.825 192.006 101.863C192.69 101.372 193.375 100.882 194.06 100.391C194.41 100.137 194.778 99.899 195.127 99.6284C195.286 99.5024 195.509 99.3558 195.546 99.1375L195.547 99.1541ZM191.118 92.4765C191.281 92.1508 190.79 91.7319 190.624 91.4595C190.144 90.6744 189.822 89.7466 189.026 89.23C186.449 91.1322 183.961 93.1286 181.419 95.0619C180.276 95.9293 179.045 96.7356 177.937 97.6507C177.605 97.9203 177.195 98.2943 177.273 98.7549C177.356 99.2983 177.864 99.7162 178.125 100.182C178.331 100.569 178.436 101.194 178.834 101.452C179.077 101.62 179.351 101.487 179.593 101.356C180.171 101.038 180.658 100.56 181.165 100.163C181.689 99.7491 182.211 99.3184 182.752 98.9198C185.116 97.0804 187.517 95.2887 189.898 93.465C190.168 93.2491 190.438 93.0498 190.724 92.8329C190.852 92.7421 191.061 92.6296 191.135 92.4755L191.118 92.4765ZM186.814 86.7553C187.288 86.3608 187.34 86.1249 186.993 85.6142C186.573 84.9916 186.395 84.2379 185.635 84.0515C183.108 85.6681 180.783 87.6214 178.384 89.4296C177.256 90.2795 176.126 91.1129 174.979 91.9306C174.597 92.2032 174.055 92.5853 174.122 93.1297C174.16 93.4765 174.412 93.7935 174.595 94.0815C174.833 94.4327 175.006 94.821 175.242 95.1556C175.479 95.4903 175.623 95.3984 175.909 95.1815C176.241 94.9119 176.539 94.6113 176.889 94.3572C177.43 93.9586 177.97 93.5435 178.51 93.1449C180.703 91.4822 182.893 89.7865 185.084 88.1072C185.655 87.657 186.262 87.2543 186.799 86.7895L186.814 86.7553ZM184.698 70.031C184.87 69.8543 185.179 69.4698 185.145 69.1893C185.134 69.0072 184.931 68.9531 184.778 68.8959C184.115 68.6538 183.374 68.4829 182.68 68.2759C178.871 67.145 174.902 66.6555 170.928 66.8976C163.726 67.353 156.584 70.1649 150.794 74.4235C146.275 77.7403 142.706 82.1628 140.443 87.3034C137.872 93.1277 136.924 99.6674 137.144 106.003C137.218 108.043 137.409 110.076 137.732 112.1C137.872 113.039 138.078 113.957 138.019 114.908C137.985 115.708 137.815 116.466 137.546 117.231C136.977 118.811 136.016 120.216 135.017 121.557C134.156 122.706 133.258 123.791 132.944 125.173C133.517 125.039 134.049 124.773 134.579 124.459C135.14 124.125 135.716 123.758 136.357 123.636C137.721 123.386 138.259 124.583 138.363 125.741C138.427 126.784 138.49 127.827 138.555 128.887C138.587 129.417 138.618 129.93 138.634 130.461C138.65 130.726 138.666 130.991 138.683 131.256C138.689 131.355 138.667 131.539 138.721 131.619C138.942 131.971 139.29 131.136 139.364 130.981C139.57 130.537 139.776 130.109 139.965 129.665C140.375 128.759 140.751 127.839 141.197 126.964C141.731 125.918 142.512 125.089 143.761 125.412C144.504 125.599 145.145 126.025 145.859 126.281C146.743 126.609 147.49 126.315 148.024 125.534C148.466 124.876 148.353 124.118 148.045 123.422C147.641 122.533 147.205 121.645 146.769 120.757C145.95 119.046 144.97 117.427 144.199 115.679C143.446 113.963 142.855 112.17 142.526 110.312C142.217 108.52 142.171 106.677 142.111 104.869C142.052 103.078 142.059 101.283 142.182 99.4801C142.416 95.9589 143.1 92.4601 144.53 89.1985C147.126 83.2398 151.966 78.3908 157.7 75.3822C160.696 73.8202 163.871 72.7293 167.144 71.8982C171.087 70.8768 175.153 70.2302 179.243 70.247C180.257 70.2517 181.29 70.2885 182.31 70.3926C183.128 70.459 184.058 70.7182 184.717 70.0631L184.698 70.031ZM183.868 80.968C184.024 80.5264 183.663 80.0498 183.442 79.6976C183.164 79.2325 182.888 78.784 182.578 78.3375C182.395 78.0661 182.211 77.7781 181.95 77.578C181.81 77.4701 181.691 77.4275 181.544 77.4697C180.874 77.6435 180.217 78.3317 179.68 78.78C177.308 80.7694 174.953 82.7743 172.545 84.716L171.611 85.4711C171.341 85.6869 171.022 85.9058 170.876 86.2305C170.67 86.6752 170.881 87.1277 171.072 87.5316C171.298 87.9666 171.523 88.4016 171.701 88.8561C171.857 89.2455 172.028 89.5842 172.404 89.7607C175.215 87.8775 177.84 85.6899 180.558 83.6462C181.194 83.1753 181.829 82.6878 182.465 82.2169C182.895 81.9082 183.653 81.5296 183.836 80.9866L183.868 80.968ZM180.448 73.6639C179.891 73.515 179.304 73.4344 178.722 73.42C177.24 73.3774 175.71 73.6368 174.242 73.8259C172.659 74.0387 171.096 74.3001 169.538 74.6443C166.421 75.3162 163.357 76.3007 160.482 77.6726C155.476 80.0717 151.16 83.7087 148.519 88.6397C147.308 90.8741 146.475 93.285 145.911 95.7626C145.624 97.0598 145.389 98.3872 145.254 99.7084C145.219 99.9598 145.173 100.295 145.53 100.157C145.774 100.059 145.99 99.7965 146.214 99.6499C146.932 99.1574 147.671 98.7302 148.406 98.2532C154.178 94.511 159.785 90.5129 165.212 86.293C167.989 84.1294 170.713 81.9191 173.417 79.6601C175.774 77.6883 178.164 75.731 180.431 73.6483L180.448 73.6639ZM120.139 170.347C120.52 169.243 119.929 167.999 119.535 166.976C118.609 164.606 117.343 162.373 115.726 160.394C114.037 158.303 111.89 156.622 109.872 154.867C107.714 153.004 105.539 151.142 103.335 149.332C99.0129 145.772 94.5828 142.352 89.9848 139.175C85.4747 136.076 80.7874 133.071 75.7968 130.815C73.3698 129.717 70.8719 128.822 68.2754 128.215C66.943 127.898 65.5827 127.665 64.2273 127.515C63.8093 127.474 63.4069 127.415 62.9899 127.391C62.7736 127.387 62.5075 127.387 62.4277 127.442C62.3479 127.496 62.2772 127.7 62.2251 127.936C62.1334 128.34 62.1091 128.757 62.0505 129.16C61.9635 129.913 61.8276 130.686 61.8896 131.43C61.9148 131.844 61.9862 131.923 62.4062 131.997C63.178 132.116 64.0174 131.982 64.7791 131.935C66.0396 131.892 67.3072 131.964 68.5477 132.138C73.5759 132.829 78.2268 135.238 82.3576 138.111C86.7136 141.137 90.342 145.037 93.7455 149.068C97.3267 153.288 100.781 157.615 104.552 161.673C106.491 163.765 108.51 165.803 110.621 167.719C112.486 169.4 114.516 171.088 117.029 171.683C118.26 171.974 119.672 171.688 120.123 170.364L120.139 170.347ZM108.742 118.869C109.053 118.784 109.842 118.636 109.798 118.19C109.748 117.644 109.047 117.056 108.708 116.677C107.62 115.447 106.483 114.253 105.3 113.112C100.671 108.607 95.3704 104.808 89.4583 102.16C83.1368 99.3377 76.0997 97.3232 69.1396 98.4785C66.4411 98.9255 63.8461 99.9811 61.691 101.708C59.4405 103.507 57.8927 105.928 56.7555 108.541C55.3575 111.784 54.5551 115.256 54.1874 118.769C53.8227 122.331 53.956 125.88 54.1739 129.457C54.1759 129.49 54.1779 129.523 54.1809 129.573C54.0962 131.456 54.2444 133.342 54.5239 135.203C55.1223 139.022 56.1967 142.746 56.9099 146.542C57.0054 147.018 57.0679 147.497 57.1469 147.974C57.1951 148.22 57.264 148.532 57.4427 148.737C57.7288 149.069 58.2557 148.987 58.6521 148.946C59.1303 148.884 59.7946 148.876 60.21 148.602C60.5933 148.346 60.4772 147.804 60.4043 147.426C60.041 145.554 59.6132 143.718 59.3326 141.841C59.05 139.93 58.8504 138.014 58.7333 136.093C58.5043 132.334 58.6199 128.505 59.1577 124.782C60.0615 118.611 62.7049 112.35 67.4511 108.138C69.8014 106.067 72.6939 104.711 75.8115 104.321C79.1112 103.921 82.3947 104.618 85.4164 105.93C91.339 108.478 96.5029 112.485 100.767 117.277C101.302 117.876 101.838 118.492 102.341 119.11C102.7 119.536 103.112 120.309 103.719 120.438C104.056 120.518 104.411 120.346 104.703 120.229C105.126 120.07 105.548 119.911 105.987 119.752C106.866 119.449 107.781 119.194 108.679 118.923L108.742 118.869ZM98.1766 121.408C98.427 121.426 100.146 121.819 100.043 121.211C100.016 121.046 99.7204 120.832 99.614 120.722C99.4715 120.564 99.3289 120.407 99.2029 120.248C98.9002 119.918 98.6151 119.603 98.3124 119.272C97.6905 118.612 97.0696 117.968 96.4166 117.343C93.8376 114.841 91.0232 112.569 87.904 110.748C84.5779 108.807 81.0091 107.246 77.0826 107.452C76.2546 107.502 75.4317 107.635 74.648 107.866C71.3775 108.747 68.8531 110.961 66.9777 113.735C65.957 115.26 65.1101 116.907 64.4327 118.61C63.7979 120.195 63.2044 121.909 62.9244 123.589C62.8868 123.79 62.8441 123.909 63.0333 124.014C63.3435 124.195 63.9056 124.144 64.2574 124.189C65.1948 124.298 66.1165 124.425 67.0414 124.601C68.857 124.939 70.6466 125.395 72.3946 125.987C75.8544 127.122 79.1737 128.682 82.3728 130.448C83.9557 131.332 85.5251 132.267 87.0634 133.237C87.8409 133.722 88.6195 134.223 89.3979 134.724C89.9169 135.058 90.4202 135.409 90.9692 135.692C91.0716 135.735 91.2248 135.792 91.292 135.805C91.3171 135.67 91.3907 135.516 91.4303 135.348C91.4804 135.079 91.5139 134.811 91.5475 134.543C91.7707 132.751 91.8927 130.932 92.1832 129.152C92.4872 127.322 93.0085 125.512 93.9062 123.878C94.4593 122.864 95.1438 121.825 96.3209 121.504C96.9255 121.334 97.5588 121.362 98.1941 121.423L98.1766 121.408ZM65.8273 170.963C66.2401 170.373 66.5309 169.69 66.3375 168.971C66.1265 168.236 65.8161 167.507 65.572 166.774C64.6533 163.971 63.9633 161.104 63.2248 158.257C62.8535 156.801 62.4657 155.345 62.0292 153.909C61.7378 152.946 61.3235 151.875 60.1999 151.71C59.6805 151.642 59.1255 151.809 58.6936 152.085C58.2295 152.379 58.2507 152.727 58.3969 153.216C58.7872 154.439 59.0285 155.671 59.3204 156.916C59.4807 157.638 59.6741 158.357 59.9482 159.039C60.1441 159.525 60.4209 159.974 60.4377 160.521C60.4847 161.566 59.4773 162.491 58.444 162.172C58.1564 162.09 57.8959 161.906 57.684 161.703C57.5073 161.531 57.3753 161.273 57.0938 161.29C56.862 161.304 56.5895 161.471 56.3782 161.55C56.0376 161.687 55.7135 161.823 55.3718 161.944C54.0236 162.458 52.6714 162.906 51.282 163.29C49.9102 163.689 48.4953 163.925 47.107 164.325C46.698 164.433 46.2931 164.607 46.0483 164.955C45.8035 165.302 45.7812 165.752 45.7898 166.167C45.7793 167.63 45.6692 169.1 45.7415 170.558C45.8252 171.932 46.0029 173.484 46.74 174.669C47.2746 175.534 48.1278 175.897 49.1119 175.954C50.546 176.033 52.0127 175.827 53.4534 175.739C56.5641 175.782 59.8787 175.082 62.6658 173.632C63.9065 172.992 65.0152 172.093 65.8262 170.947L65.8273 170.963ZM55.6291 158.255C56.2 157.804 55.8294 157.179 55.6626 156.624C55.1849 155.057 54.7403 153.489 54.3278 151.902C53.5677 148.973 52.9059 146.022 52.3269 143.065C51.4189 143.985 50.8231 145.118 50.2635 146.299C49.5284 147.873 48.8605 149.459 48.3457 151.103C47.3837 154.137 46.731 157.334 46.3079 160.485C46.2829 160.619 46.2399 161.004 46.3277 161.082C46.3628 161.113 46.6443 161.096 46.7417 161.057C47.5315 160.925 48.3141 160.678 49.0843 160.498C50.6889 160.101 52.2916 159.671 53.8344 159.079C54.4195 158.86 55.1204 158.635 55.6281 158.238L55.6291 158.255ZM51.4277 138.4C51.6252 137.823 51.5383 137.213 51.4679 136.602C51.3874 135.826 51.3057 135.033 51.2408 134.239C51.1849 133.595 51.0948 132.935 51.071 132.272C51.0597 131.541 50.6345 132.199 50.4013 132.462C49.4838 133.499 48.6346 134.564 47.8908 135.723C46.4353 138.023 45.3582 140.531 44.4157 143.065C43.3879 145.837 42.5471 148.681 41.8917 151.563C41.2342 154.411 40.7454 157.3 40.3745 160.215C40.1807 161.672 40.0368 163.127 39.9103 164.597C39.7818 166.035 39.621 167.49 39.6084 168.921C39.6316 169.301 39.6548 169.682 40.0613 169.807C40.4016 169.936 40.8156 169.911 41.1664 169.939C41.4996 169.952 41.9899 170.089 42.2387 169.807C42.5186 169.491 42.4616 168.83 42.4715 168.447C42.4934 167.714 42.5152 166.982 42.5536 166.248C42.6887 163.281 42.9904 160.321 43.4937 157.399C44.4545 151.888 46.0072 146.276 49.1626 141.596C49.5287 141.058 49.9114 140.52 50.3127 140.013C50.714 139.507 51.2166 139.028 51.4277 138.4ZM44.0883 182.16C44.7945 181.203 45.652 179.455 44.8508 178.308C44.4512 177.75 44.0049 177.246 43.6519 176.635C43.3175 176.058 43.0473 175.442 42.8434 174.823C42.7218 174.465 42.6336 174.105 42.5441 173.728C42.4989 173.531 42.5002 173.282 42.3431 173.158C42.0454 172.911 41.4222 173.048 41.0745 173.069C40.8261 173.085 40.5788 173.116 40.3304 173.131C40.0986 173.146 39.8285 173.079 39.6142 173.109C39.2188 173.166 39.3225 173.775 39.3251 174.09C39.3323 174.755 39.442 175.463 39.1316 176.096C38.8804 176.61 38.3861 176.956 37.8241 177.007C37.2611 177.041 36.7772 176.739 36.4996 176.273C36.2395 175.824 36.2364 175.226 35.7069 174.992C35.1258 174.728 34.3328 174.81 33.7161 174.781C33 174.758 32.2685 174.753 31.5545 174.763C30.1429 174.783 28.7208 174.902 27.3213 175.121C24.5721 175.554 21.8657 176.417 19.4233 177.796C18.1701 178.504 16.9746 179.341 15.8689 180.289C14.8586 181.165 13.8232 182.176 13.4207 183.48C12.6437 186.004 14.9756 187.723 17.0232 188.596C19.8899 189.817 23.0511 189.874 26.105 189.804C26.8306 189.71 27.5719 189.599 28.2964 189.488C31.2102 189.028 34.0943 188.354 36.8167 187.207C38.194 186.625 39.531 185.928 40.7762 185.088C41.9903 184.282 43.2141 183.36 44.0893 182.177L44.0883 182.16ZM36.4109 166.905C36.4444 166.637 36.5587 166.331 36.525 166.05C36.5159 165.901 36.5139 165.868 36.3784 165.826C36.2264 165.786 35.9956 165.817 35.831 165.843C34.246 166.289 32.5966 166.772 31.2807 167.816C30.8839 168.122 30.5605 168.541 30.8402 169.039C31.0259 169.36 31.3576 169.623 31.6231 169.889C31.8711 170.14 32.1181 170.374 32.3827 170.624C32.8229 171.029 33.2631 171.435 33.8683 171.547C34.3049 171.62 34.7809 171.525 35.1662 171.302C36.289 170.635 36.3058 169.271 36.3355 168.123C36.3444 167.723 36.3698 167.323 36.4119 166.921L36.4109 166.905Z" fill="black"/>
<path d="M303.166 141.196C303.748 143.105 303.759 145.199 302.89 147.03C302.096 148.724 300.696 150.039 299.2 151.127C295.045 154.123 290.084 155.622 285.196 156.967C279.819 158.458 274.328 159.457 268.801 160.126C266.079 160.458 263.335 160.709 260.604 160.892C257.823 161.078 255.053 161.163 252.29 161.647C251.007 161.859 249.727 162.136 248.468 162.479C247.536 162.735 246.588 162.992 245.717 163.427C245.008 163.786 244.373 164.29 244.001 164.995C243.807 165.355 243.681 165.745 243.639 166.147C243.572 166.683 243.704 167.223 243.62 167.744C243.532 168.214 243.274 168.612 243.084 169.039C242.924 169.415 242.798 169.805 242.62 170.165C242.487 170.439 242.325 170.764 242.05 170.897C241.712 171.068 241.238 170.93 240.958 170.698C240.31 170.156 240.504 168.98 240.643 168.257C240.78 167.501 240.99 166.591 240.371 165.98C239.717 165.339 238.534 165.294 237.877 165.966C237.58 166.267 237.422 166.675 237.313 167.064C237.164 167.622 236.978 168.132 236.625 168.602C236.317 169.003 235.974 169.373 235.613 169.727C235.33 169.994 234.794 170.741 234.339 170.636C233.664 170.478 234.16 169.616 234.322 169.274C234.633 168.64 234.943 168.006 235.22 167.358C235.581 166.472 235.914 165.388 235.071 164.641C234.333 163.988 233.219 163.989 232.549 164.712C232.173 165.1 231.957 165.645 231.755 166.14C231.493 166.754 231.248 167.367 230.951 167.95C230.743 168.362 230.522 168.824 230.158 169.129C229.842 169.397 229.199 169.47 229.02 168.999C228.9 168.657 229.102 168.163 229.199 167.841C229.351 167.333 229.47 166.827 229.639 166.335C229.994 165.333 230.484 164.372 231.079 163.505C232.283 161.72 233.89 160.259 235.59 158.975C239.529 155.976 243.88 153.467 248.302 151.303C252.87 149.064 257.626 147.195 262.446 145.572C267.495 143.868 272.638 142.358 277.855 141.226C280.495 140.649 283.16 140.188 285.834 139.875C286.699 139.889 287.924 140.08 288.687 139.519C289.435 138.974 289.461 137.76 288.872 137.097C288.587 136.782 288.193 136.59 287.801 136.431C287.204 136.185 286.622 135.905 286.042 135.658C284.915 135.161 283.803 134.647 282.706 134.099C278.285 131.925 274.073 129.356 270.044 126.51C266.031 123.663 262.203 120.572 258.498 117.324C258.042 116.937 257.602 116.531 257.163 116.143C256.829 115.847 256.207 115.453 256.326 114.947C256.405 114.61 256.686 114.31 256.886 114.049C257.07 113.788 257.254 113.544 257.439 113.3C257.883 112.692 258.313 112.1 258.741 111.492C260.397 109.198 262.019 106.905 263.673 104.594C264.057 104.072 264.439 103.533 264.806 103.012C264.974 102.769 265.159 102.525 265.311 102.283C265.386 102.162 265.502 101.873 265.666 101.846C265.915 101.831 266.052 102.72 266.13 102.915C266.351 103.533 266.602 104.116 266.888 104.714C267.986 106.924 269.457 108.962 271.034 110.843C274.19 114.623 277.957 117.801 281.767 120.876C285.718 124.06 289.837 127.016 293.756 130.235C295.698 131.828 297.595 133.508 299.335 135.33C300.985 137.041 302.498 138.96 303.203 141.26L303.166 141.196Z" fill="#C6684E"/>
<path d="M289.045 53.9802C289.045 53.9802 288.965 54.3009 288.921 54.4033C288.823 54.6918 288.724 54.9804 288.625 55.2689C288.287 56.2701 287.931 57.2392 287.559 58.2259C284.906 65.1521 281.539 71.8226 277.704 78.1726C273.854 84.5402 269.516 90.5385 265.197 96.5856C260.879 102.633 256.717 108.803 252.172 114.681C247.627 120.559 242.612 126.084 237.365 131.356C236.066 132.665 234.732 133.96 233.397 135.238C232.721 135.877 232.044 136.5 231.369 137.14C230.976 137.513 230.491 138.274 229.917 137.86C229.57 137.615 229.278 137.201 228.992 136.869L228.064 135.829C227.441 135.135 226.816 134.442 226.193 133.749C224.892 132.316 223.59 130.866 222.305 129.415C217.252 123.673 212.624 117.556 208.175 111.362C203.671 105.087 199.341 98.6698 195.107 92.1964C192.981 88.952 190.888 85.6889 188.875 82.3877C187.879 80.7697 186.899 79.1507 185.952 77.5131C185.525 76.7746 185.097 76.0195 184.654 75.2986C184.505 75.0417 184.309 74.821 184.612 74.6197C184.852 74.4555 184.849 74.6883 184.914 74.9337C185.099 75.5208 185.397 76.0345 185.679 76.5824C186.165 77.4669 186.667 78.3339 187.169 79.2008C188.097 80.8063 189.075 82.3922 190.068 83.9605C192.107 87.1438 194.258 90.2703 196.458 93.3607C200.693 99.3187 205.106 105.183 210.195 110.424C211.152 111.396 212.155 112.299 213.619 112.06C214.393 111.93 215.102 111.571 215.797 111.246C216.67 110.844 217.542 110.425 218.414 110.006C221.918 108.33 225.401 106.572 228.868 104.816C232.351 103.058 235.836 101.333 239.337 99.6071C240.095 99.2285 240.855 98.883 241.577 98.4568C242.043 98.1957 242.553 97.8322 242.686 97.2922C242.823 96.8019 242.563 96.3524 242.226 96.0073C241.589 95.3812 240.701 94.9866 239.987 94.4484C234.239 90.1282 228.847 85.3874 223.877 80.1888C218.834 74.8949 214.105 69.2827 210.155 63.1078C209.219 61.6524 208.315 60.195 207.507 58.6652C206.645 57.0557 205.911 55.3719 205.129 53.7242C205.256 53.0849 205.776 52.6211 206.178 52.1146C206.827 51.3105 207.459 50.5075 208.108 49.7034C209.298 48.2182 210.504 46.7485 211.642 45.2332C213.874 42.3216 216.02 39.3322 218.096 36.3137C222.218 30.3118 226.061 24.0943 229.372 17.61C229.743 16.8727 230.113 16.1355 230.484 15.3982C230.617 15.1242 230.783 14.5822 231.054 14.3995C231.31 14.2343 231.422 14.4269 231.636 14.6632C232.276 15.3555 232.823 16.1532 233.416 16.8816C234.009 17.6101 234.602 18.3385 235.227 19.0483C237.537 21.7663 239.924 24.3965 242.422 26.9369C247.135 31.719 252.192 36.1644 257.651 40.1033C263.058 44.0121 268.812 47.3347 274.836 50.1921C277.866 51.6363 280.977 53.0424 284.289 53.6716C285.096 53.8219 285.9 53.9225 286.701 53.9734C287.135 53.9969 287.567 54.0038 287.983 54.0116C288.199 53.9985 288.888 53.8568 289.081 54.0279L289.045 53.9802ZM260.92 70.0206C260.92 70.0206 260.945 69.8861 260.94 69.8033C260.533 66.9527 259.667 64.1966 258.364 61.6333C257.722 60.3595 257.053 59.2035 255.87 58.3448C255.401 58.0078 254.821 57.7606 254.233 57.9293C253.661 58.0971 253.145 58.6272 253.048 59.2148C252.952 59.819 253.332 60.3277 253.706 60.7371C254.186 61.2563 254.634 61.7775 255.018 62.3525C255.768 63.4868 256.294 64.7512 256.705 66.0392C257.099 67.3282 257.395 68.6398 257.641 69.9544C257.79 70.7598 257.482 71.7093 257.942 72.4292C258.474 73.261 259.883 73.1918 260.487 72.4736C261.076 71.7729 260.835 70.8235 260.934 69.9865L260.92 70.0206ZM252.92 74.0315C253.463 73.6661 253.708 73.0528 253.553 72.414C253.395 71.7256 252.83 71.1783 252.415 70.6551C251.371 69.3392 250.324 67.9736 249.152 66.7486C248.619 66.1827 247.83 66.048 247.136 66.3894C246.458 66.7133 246.247 67.3411 246.34 68.0502C246.342 68.0833 246.345 68.1329 246.363 68.1651C246.365 68.1982 246.385 68.2468 246.404 68.2789C246.811 68.9688 247.313 69.5698 247.816 70.1874C248.373 70.8681 248.947 71.5644 249.504 72.2452C250.293 73.1944 251.435 75.0196 252.886 74.017L252.92 74.0315ZM250.242 84.6324C251.004 84.3201 251.491 83.3098 251.015 82.5909C250.813 82.2708 250.467 82.0591 250.141 81.8796C249.694 81.6409 249.28 81.3836 248.925 81.0229C248.339 80.4104 248.025 79.6151 247.843 78.8118C247.619 77.8614 247.508 76.8544 247.516 75.8899C247.53 75.0413 247.468 74.0147 246.548 73.6552C245.782 73.3528 244.786 73.6462 244.434 74.4156C244.098 75.1674 244.547 76.0042 244.178 76.7581C243.865 77.3588 243.218 77.6476 242.617 77.867C241.625 78.2266 240.593 78.4889 239.557 78.6684C237.171 79.0631 234.85 78.8721 232.586 77.9962C231.666 77.6367 230.597 77.5522 230.095 78.5801C229.637 79.5221 230.151 80.3218 230.994 80.7857C233.194 81.9813 235.876 82.3497 238.35 82.0328C239.547 82.043 240.715 81.8555 241.859 81.5365C242.399 81.3872 242.936 81.2049 243.456 81.0071C243.813 80.8689 244.293 80.5572 244.696 80.6323C245.016 80.6959 245.172 81.0687 245.287 81.3276C245.48 81.7646 245.672 82.1851 245.93 82.6015C246.373 83.3224 246.977 83.9671 247.732 84.3532C248.452 84.7248 249.465 84.9789 250.259 84.648L250.242 84.6324ZM241.928 65.4768C241.922 64.829 241.64 64.0317 241.023 63.7203C240.492 63.4535 239.888 63.6399 239.463 64.0314C239.07 64.4044 238.878 65.3302 238.268 65.4173C237.657 65.4877 236.907 64.9018 236.362 64.6857C235.544 64.3533 234.682 64.1232 233.797 64.0442C232.225 63.8907 230.46 64.1145 229.212 65.1878C228.045 66.2063 227.672 67.7249 227.747 69.2328C227.763 70.0462 227.945 70.8495 228.338 71.5735C228.713 72.2653 229.309 73.0434 230.044 73.3809C230.796 73.7174 231.695 73.4797 232.135 72.7881C232.576 72.1131 232.249 71.3851 231.799 70.8141C231.294 70.1635 230.677 69.3201 230.957 68.4555C231.223 67.6415 231.945 67.2152 232.761 67.232C233.527 67.2518 234.338 67.4849 235.05 67.7075C235.931 67.9862 236.66 68.4903 237.453 68.9572C238.109 69.3494 238.965 69.4967 239.655 69.089C240.249 68.737 240.769 68.0072 241.168 67.4511C241.581 66.8774 241.924 66.225 241.913 65.4944L241.928 65.4768ZM236.952 50.0902C238.602 50.1725 238.984 47.9719 237.688 47.17C236.859 46.6554 235.66 46.6121 234.723 46.5196C233.553 46.408 232.373 46.3969 231.199 46.5016C230.652 46.5349 230.106 46.5682 229.543 46.6025C229.079 46.6307 228.597 46.6269 228.139 46.7545C227.486 46.9439 227.036 47.4699 226.994 48.1373C226.952 48.8213 227.259 49.5006 227.908 49.7769C228.266 49.9213 228.63 49.8991 229.011 49.8759C229.541 49.8436 230.087 49.8103 230.633 49.777C231.677 49.7135 232.74 49.6986 233.773 49.7519C234.323 49.7683 234.891 49.8168 235.444 49.8829C235.945 49.9354 236.435 50.0718 236.935 50.0912L236.952 50.0902ZM237.647 59.0396C237.603 58.3275 237.073 57.8113 236.579 57.3428C235.946 56.7664 235.25 56.2603 234.493 55.8411C234.081 55.6169 233.653 55.4103 233.228 55.2534C232.853 55.11 232.463 54.9841 232.05 55.0259C231.176 55.1291 230.791 55.9005 230.84 56.7118C230.843 56.7615 230.845 56.7946 230.847 56.8278C230.847 56.8278 230.849 56.8609 230.867 56.8764L230.868 56.893C230.987 57.2181 231.253 57.4845 231.482 57.7032C231.836 58.0473 232.22 58.3563 232.62 58.6477C233.455 59.2617 234.357 59.8716 235.328 60.2612C235.669 60.4066 236.06 60.549 236.436 60.443C237.09 60.2702 237.655 59.7205 237.613 59.025L237.647 59.0396Z" fill="white"/>
<path d="M260.939 69.8064C260.939 69.8064 260.949 69.9554 260.92 70.0237C260.821 70.8607 261.061 71.8101 260.473 72.5108C259.868 73.229 258.46 73.2982 257.927 72.4664C257.467 71.7465 257.774 70.7804 257.626 69.9916C257.38 68.677 257.1 67.3478 256.69 66.0764C256.279 64.7884 255.753 63.524 255.003 62.3897C254.618 61.7982 254.172 61.2935 253.691 60.7743C253.3 60.3494 252.937 59.8562 253.033 59.252C253.13 58.6644 253.646 58.1178 254.218 57.9665C254.806 57.7977 255.386 58.0449 255.856 58.382C257.037 59.2242 257.707 60.3967 258.349 61.6705C259.653 64.2504 260.518 66.9899 260.925 69.8405L260.939 69.8064Z" fill="black"/>
<path d="M253.57 72.4187C253.725 73.0575 253.462 73.6552 252.937 74.0362C251.484 75.0222 250.36 73.2126 249.555 72.2644C248.981 71.5847 248.425 70.9039 247.867 70.2066C247.364 69.589 246.845 68.989 246.454 68.2982C246.436 68.2661 246.416 68.2174 246.414 68.1843C246.412 68.1512 246.392 68.1025 246.39 68.0694C246.297 67.3604 246.508 66.7326 247.187 66.4087C247.882 66.0838 248.67 66.202 249.203 66.7678C250.358 67.9939 251.405 69.3594 252.466 70.6743C252.88 71.1976 253.446 71.7614 253.604 72.4333L253.57 72.4187Z" fill="black"/>
<path d="M251.031 82.5788C251.508 83.3143 251.004 84.3256 250.257 84.6204C249.462 84.9348 248.45 84.6973 247.73 84.3257C246.975 83.9395 246.37 83.2949 245.928 82.5739C245.671 82.1741 245.478 81.7371 245.285 81.3001C245.17 81.0412 245.014 80.6684 244.694 80.6048C244.307 80.5286 243.811 80.8414 243.454 80.9795C242.934 81.1774 242.397 81.3597 241.857 81.5089C240.713 81.8279 239.544 81.9989 238.348 82.0053C235.89 82.3212 233.193 81.9703 230.992 80.7581C230.149 80.2942 229.635 79.4945 230.093 78.5525C230.595 77.5246 231.664 77.6091 232.584 77.9686C234.846 78.828 237.169 79.0355 239.555 78.6408C240.591 78.4614 241.623 78.1991 242.615 77.8395C243.216 77.62 243.88 77.3303 244.176 76.7305C244.562 75.9757 244.096 75.1398 244.432 74.388C244.783 73.6021 245.78 73.3253 246.546 73.6276C247.466 73.9871 247.528 75.0138 247.514 75.8623C247.506 76.8268 247.633 77.8329 247.841 78.7842C248.023 79.5876 248.337 80.3828 248.923 80.9953C249.277 81.356 249.692 81.6133 250.139 81.852C250.465 82.0316 250.811 82.2432 251.013 82.5633L251.031 82.5788Z" fill="black"/>
<path d="M241.023 63.7234C241.64 64.0348 241.921 64.832 241.928 65.4798C241.939 66.2105 241.596 66.8629 241.183 67.4366C240.784 67.9927 240.264 68.7225 239.67 69.0745C238.98 69.4821 238.14 69.3339 237.468 68.9427C236.675 68.4758 235.947 67.9883 235.065 67.693C234.352 67.4538 233.524 67.2218 232.776 67.2175C231.96 67.2007 231.222 67.628 230.972 68.441C230.693 69.3222 231.309 70.149 231.814 70.7996C232.264 71.3705 232.591 72.0985 232.15 72.7736C231.694 73.4662 230.794 73.7039 230.059 73.3664C229.324 73.0289 228.728 72.2508 228.353 71.559C227.96 70.835 227.778 70.0317 227.762 69.2182C227.67 67.7114 228.059 66.1918 229.227 65.1733C230.475 64.1 232.24 63.8762 233.812 64.0297C234.697 64.1087 235.559 64.3388 236.377 64.6712C236.922 64.8873 237.672 65.4732 238.283 65.4027C238.893 65.3323 239.086 64.4064 239.478 64.0169C239.903 63.6253 240.507 63.439 241.038 63.7058L241.023 63.7234Z" fill="black"/>
<path d="M237.705 47.1887C239.001 47.9907 238.619 50.1912 236.969 50.109C236.469 50.0895 235.962 49.9542 235.477 49.9007C234.925 49.8346 234.374 49.8017 233.807 49.7697C232.758 49.7339 231.711 49.7478 230.667 49.7948C230.137 49.8271 229.591 49.8604 229.044 49.8937C228.663 49.9169 228.299 49.9391 227.941 49.7947C227.293 49.5184 226.986 48.839 227.027 48.1551C227.07 47.4877 227.52 46.9616 228.173 46.7722C228.614 46.6456 229.113 46.6485 229.577 46.6203C230.123 46.587 230.669 46.5537 231.232 46.5194C232.406 46.4146 233.586 46.4092 234.757 46.5373C235.71 46.6289 236.893 46.6732 237.722 47.1877L237.705 47.1887Z" fill="black"/>
<path d="M240.493 97.0296C240.493 97.0296 240.494 97.0461 240.462 97.0647C240.368 97.1701 240.223 97.2454 240.112 97.3187C239.15 97.9092 238.096 98.339 237.08 98.8497C236.999 98.8879 236.903 98.9436 236.806 98.9827L236.484 98.3375C236.999 98.0734 237.459 97.713 237.655 97.1028C237.934 96.2215 237.584 95.3951 236.918 94.8208C236.724 94.6497 236.514 94.4797 236.288 94.3107L236.535 93.9964C236.814 94.2121 237.076 94.4123 237.355 94.628C238.226 95.2896 239.144 95.8984 240 96.5776C240.122 96.6699 240.437 96.9332 240.493 97.0296Z" fill="white"/>
<path d="M236.58 57.3636C237.072 57.8156 237.62 58.3473 237.647 59.0604C237.69 59.7724 237.108 60.3065 236.47 60.4783C236.094 60.5843 235.704 60.4419 235.362 60.2965C234.391 59.9069 233.49 59.297 232.654 58.6831C232.254 58.3917 231.87 58.0827 231.516 57.7386C231.287 57.5199 231.021 57.2369 230.902 56.9284C230.902 56.9284 230.902 56.9284 230.901 56.9118C230.901 56.9118 230.899 56.8787 230.882 56.8631C230.882 56.8631 230.877 56.7803 230.874 56.7472C230.825 55.9358 231.21 55.1644 232.085 55.0613C232.497 55.0029 232.888 55.1453 233.262 55.2887C233.688 55.4622 234.115 55.6523 234.528 55.8764C235.284 56.2791 235.979 56.7852 236.614 57.3782L236.58 57.3636Z" fill="black"/>
<path d="M236.535 93.9977L236.288 94.3119C235.644 93.8359 234.952 93.3961 234.308 92.9201C233.457 92.3071 232.621 91.6766 231.8 91.0286C230.126 89.7344 228.499 88.4042 226.903 87.0388C223.747 84.3391 220.747 81.4803 217.902 78.4293C212.265 72.3904 207.232 65.6166 203.364 58.3232C203.063 57.7432 202.739 57.0649 202.814 56.3954C202.895 55.8088 203.318 55.3842 203.796 55.0393C207.277 62.805 212.222 69.767 217.796 76.1421C223.496 82.6757 229.665 88.7154 236.55 93.9802L236.535 93.9977Z" fill="white"/>
<path d="M236.5 98.3383L236.822 98.9835C235.79 99.4951 234.757 100.007 233.724 100.518C229.207 102.755 224.688 104.975 220.169 107.178C219.039 107.729 217.926 108.279 216.796 108.83C216.004 109.21 215.215 109.624 214.369 109.925C213.898 110.103 213.393 110.267 212.89 110.198C212.387 110.129 211.971 109.838 211.602 109.512C210.987 108.967 210.45 108.335 209.93 107.719C209.161 106.818 208.392 105.934 207.639 105.033C206.133 103.23 204.658 101.392 203.216 99.535C200.33 95.8216 197.556 92.0184 194.925 88.1232C192.277 84.2125 189.658 80.2336 187.41 76.0824C187.129 75.5676 186.848 75.0363 186.583 74.504C186.452 74.2627 186.336 74.0038 186.205 73.7624C186.166 73.6651 185.948 73.3626 185.992 73.2602C186.164 72.8176 186.532 73.676 186.588 73.7723C186.869 74.2871 187.15 74.8184 187.432 75.3497C188.555 77.4088 189.853 79.3574 191.136 81.307C193.717 85.2051 196.457 88.9939 199.325 92.6917C202.193 96.3896 205.156 100.015 208.198 103.569C208.95 104.454 209.719 105.338 210.486 106.206C211.022 106.821 211.543 107.454 212.235 107.894C213.496 108.682 214.852 108.017 216.045 107.413C220.431 105.201 224.853 103.037 229.374 101.133C231.546 100.219 233.755 99.3864 235.965 98.5537C236.144 98.4929 236.339 98.4146 236.516 98.3207L236.5 98.3383Z" fill="white"/>
<path d="M232.396 95.6303C232.569 95.7361 233.062 95.9221 232.913 96.2137C232.81 96.4195 232.294 96.4176 232.081 96.4639C231.558 96.612 231.042 96.8596 230.539 97.073C228.334 97.9719 226.148 98.9195 223.98 99.8992C221.813 100.879 219.665 101.907 217.518 102.952C216.662 103.37 215.826 103.836 214.951 104.206C214.579 104.361 214.109 104.573 213.705 104.481C213.232 104.36 212.855 103.901 212.535 103.555C211.876 102.831 211.264 102.07 210.621 101.328C209.152 99.5893 207.682 97.834 206.228 96.0611C200.5 89.0638 195.056 81.833 190.508 74.0159C190.008 73.1655 189.557 72.3121 189.088 71.4431C189.015 71.0653 188.956 70.6368 189.15 70.2759C189.39 69.8458 189.852 69.5185 190.197 69.1817C191.027 68.3499 191.857 67.5182 192.688 66.6864C194.427 64.9517 196.133 63.2189 197.838 61.4696C198.244 61.046 198.651 60.6223 199.057 60.1987C199.276 59.9693 199.705 59.378 200.052 59.3403C200.251 59.3282 200.343 59.4887 200.453 59.6482C200.763 60.0947 200.961 60.6145 201.223 61.0972C202.26 63.1116 203.441 65.0507 204.687 66.9526C209.482 74.173 215.136 80.7759 221.511 86.6535C224.646 89.5539 227.937 92.2787 231.352 94.8629C231.7 95.1242 232.032 95.3865 232.395 95.6137L232.396 95.6303ZM212.177 92.2249L211.53 91.4167L210.449 91.4161L211.529 92.7631L212.177 92.2249ZM202.5 80.1497L201.852 79.3415L200.772 79.3408L201.851 80.6878L202.5 80.1497Z" fill="#ED6B2D"/>
<path d="M227.024 140.033C227.084 140.212 227.164 140.424 227.126 140.625C227.065 140.978 226.727 141.165 226.473 141.363C225.313 142.232 224.187 143.131 223.061 144.014C220.794 145.815 218.436 147.487 216.079 149.177C215.49 149.595 214.901 150.03 214.312 150.448C214.073 150.628 213.819 150.81 213.579 150.974C213.373 151.136 213.089 151.386 212.807 151.387C212.508 151.389 212.341 151.1 212.177 150.877C212.087 150.766 211.997 150.639 211.906 150.511C211.797 150.368 211.468 150.139 211.424 149.975C211.303 149.617 212.447 149.032 212.718 148.833C213.323 148.397 213.929 147.978 214.55 147.541C215.761 146.686 216.988 145.814 218.198 144.942C220.906 143.015 223.576 141.008 226.375 139.209C226.791 139.216 226.883 139.643 227.006 140.018L227.024 140.033Z" fill="#EE417E"/>
<path d="M223.679 135.867C223.822 136.042 224.089 136.324 224.053 136.559C224.032 136.76 223.826 136.922 223.684 137.047C223.337 137.351 222.936 137.591 222.553 137.847C221.054 138.886 219.537 139.909 218.038 140.948C216.364 142.114 214.707 143.295 213.087 144.524C212.26 145.139 211.452 145.787 210.661 146.45C210.296 146.738 209.899 147.028 209.57 147.364C209.508 147.434 209.462 147.504 209.4 147.574C209.036 147.048 208.657 146.556 208.277 146.047C207.735 145.348 207.113 144.688 206.605 143.988C206.206 143.431 206.317 143.075 206.857 142.66C207.572 142.117 208.358 141.654 209.091 141.144C212.219 139.009 215.292 136.794 218.401 134.627C218.895 134.281 219.373 133.936 219.904 133.654C220.177 133.505 220.518 133.367 220.834 133.381C221.636 133.449 222.38 134.467 222.895 135.001C223.161 135.284 223.427 135.55 223.678 135.851L223.679 135.867Z" fill="#EE417E"/>
<path d="M218.277 129.88C218.458 130.118 218.752 130.317 218.503 130.581C218.238 130.88 217.819 131.088 217.5 131.307C217.118 131.58 216.734 131.836 216.352 132.108C215.602 132.619 214.869 133.146 214.119 133.657C212.637 134.695 211.137 135.717 209.654 136.754C208.012 137.902 206.369 139.032 204.727 140.179C204.6 140.27 204.411 140.448 204.265 140.507C204.07 140.568 204.219 140.559 204.081 140.485C203.995 140.44 203.919 140.278 203.865 140.215C203.558 139.818 203.253 139.438 202.929 139.042C202.387 138.327 201.845 137.612 201.304 136.914C201.36 136.745 201.489 136.67 201.65 136.594C201.94 136.443 202.229 136.276 202.517 136.092C203.237 135.633 203.957 135.174 204.658 134.682C206.079 133.715 207.464 132.716 208.848 131.701C210.201 130.721 211.553 129.725 212.925 128.777C213.706 128.231 214.542 127.498 215.473 127.225C216.029 127.075 216.415 127.417 216.809 127.875C217.165 128.269 217.458 128.717 217.768 129.163C217.95 129.418 218.115 129.674 218.296 129.912L218.277 129.88Z" fill="#EE417E"/>
<path d="M211.529 91.4147L212.177 92.2229L211.528 92.761L210.449 91.4141L211.529 91.4147Z" fill="#ED6B2D"/>
<path d="M212.666 122.892C212.919 123.225 213.52 123.82 213.299 124.282C213.182 124.539 212.893 124.706 212.669 124.853C212.287 125.125 211.904 125.381 211.521 125.654C210.756 126.183 209.991 126.728 209.226 127.256C207.568 128.421 205.927 129.585 204.269 130.749C202.676 131.877 201.119 133.052 199.471 134.1C199.269 134.062 199.192 133.901 199.081 133.708C198.844 133.357 198.59 133.007 198.352 132.656C197.896 131.985 197.423 131.316 196.918 130.665C196.593 130.237 196.334 129.82 196.79 129.393C197.386 128.809 198.242 128.391 198.928 127.917C201.866 125.943 204.732 123.89 207.689 121.948C208.408 121.472 209.262 120.772 210.134 120.619C210.71 120.518 211.172 121.005 211.565 121.463C211.959 121.921 212.303 122.398 212.665 122.875L212.666 122.892Z" fill="#EE417E"/>
<path d="M208.094 116.856C208.338 117.323 208.093 117.653 207.729 117.958C207.112 118.478 206.356 118.889 205.685 119.329C202.778 121.268 199.962 123.334 197.037 125.241C196.269 125.737 195.53 126.43 194.69 126.83C194.674 126.831 194.593 126.869 194.56 126.871L194.527 126.873L194.42 126.763C194.313 126.637 194.204 126.494 194.113 126.35C193.857 125.967 193.617 125.582 193.36 125.183C193.177 124.911 192.996 124.656 192.829 124.384C192.684 124.177 192.433 123.876 192.466 123.608C192.487 123.408 192.71 123.244 192.87 123.135C193.22 122.881 193.605 122.658 193.973 122.42C194.724 121.925 195.476 121.447 196.227 120.953C197.905 119.853 199.582 118.737 201.26 117.621C202.873 116.559 204.451 115.449 206.121 114.483C206.58 114.654 206.821 115.055 207.08 115.488C207.376 115.985 207.864 116.354 208.144 116.853L208.094 116.856Z" fill="#EE417E"/>
<path d="M208.443 151.522C208.82 151.981 209.836 152.833 209.579 153.514C209.45 153.854 209.065 154.094 208.779 154.294C208.284 154.64 207.773 154.97 207.261 155.301C203.538 157.755 199.761 160.145 195.892 162.392C192.024 164.639 188.063 166.742 183.97 168.587C179.894 170.431 175.743 172.129 171.608 173.827C163.34 177.24 154.959 180.443 146.429 183.123C142.156 184.464 137.843 185.691 133.503 186.736C129.162 187.782 124.721 188.817 120.278 189.287C118.347 189.504 116.389 189.557 114.443 189.526C115.333 187.494 115.865 185.318 116.045 183.096C116.139 181.91 116.15 180.73 116.112 179.552C116.058 178.392 115.905 177.254 115.851 176.094C115.839 175.895 115.818 175.548 115.942 175.391C116.097 175.215 116.483 175.274 116.684 175.295C117.654 175.403 118.564 175.613 119.552 175.453C121.165 175.189 122.518 174.209 123.225 172.72C124.182 170.7 123.974 168.369 123.201 166.322C122.367 164.096 121.091 161.98 119.759 160.033C118.392 158.056 116.834 156.206 115.196 154.428C114.36 153.531 113.509 152.652 112.66 151.806C111.863 151.007 110.903 150.251 110.248 149.327C109.921 148.865 109.789 148.341 109.64 147.802C109.451 147.149 109.277 146.478 109.088 145.825C108.708 144.501 108.313 143.196 107.901 141.891C107.1 139.381 106.233 136.89 105.22 134.442C104.266 132.157 103.442 129.814 102.342 127.587C102.077 127.055 101.795 126.524 101.499 126.026C101.369 125.802 101.224 125.594 101.094 125.37C101.002 125.226 100.629 124.833 100.598 124.602C100.598 124.602 100.679 124.564 100.761 124.542C100.892 124.518 101.023 124.493 101.154 124.452C101.762 124.332 102.367 124.179 102.957 124.043C108.097 122.749 113.026 120.72 117.867 118.597C122.739 116.455 127.499 114.104 132.237 111.672C132.704 111.427 133.189 111.198 133.654 110.921C133.782 110.846 133.893 110.756 134.039 110.698C134.071 110.679 134.12 110.66 134.152 110.641C134.077 111.044 134.228 111.617 134.285 112.012C134.35 112.524 134.414 113.035 134.462 113.547C134.573 114.554 134.637 115.598 134.432 116.607C134.201 117.718 133.604 118.553 132.874 119.395C132.049 120.326 131.314 121.351 130.666 122.438C130.136 123.301 129.675 124.177 129.621 125.211C129.546 126.977 130.832 128.444 132.574 128.671C133.495 128.781 134.382 128.61 135.246 128.325C135.351 130.047 135.462 131.869 136.35 133.36C137.145 134.675 138.606 135.184 139.971 134.403C141.577 133.491 142.396 131.646 143.026 129.995C143.255 129.383 143.496 128.969 144.199 129.059C145.021 129.176 145.75 129.414 146.596 129.379C150.025 129.203 151.757 125.707 151.069 122.608C150.633 120.623 149.229 119.13 148.275 117.393C147.285 115.592 146.634 113.637 146.163 111.638C145.691 109.622 145.364 107.531 145.155 105.466C145.066 104.541 145.416 104.021 146.201 103.541C147.178 102.933 148.155 102.325 149.131 101.701C152.907 99.2933 156.592 96.7586 160.205 94.145C162.051 92.8026 163.863 91.4457 165.658 90.0732C166.087 89.7479 166.515 89.4061 166.944 89.0808C167.15 88.9186 167.574 88.5105 167.865 88.659C168.088 88.7618 168.263 89.1832 168.358 89.3769C168.638 89.8751 168.918 90.3898 169.181 90.889C171.275 94.7005 173.401 98.4935 175.542 102.269C179.88 109.899 184.362 117.455 189.117 124.844C193.854 132.2 198.862 139.391 204.237 146.31C205.59 148.056 206.975 149.783 208.392 151.492L208.443 151.522ZM186.53 141.854C186.66 140.716 185.776 139.573 185.238 138.659C184.366 137.166 183.512 135.689 182.64 134.197C179.17 128.258 175.685 122.338 172.263 116.38C170.572 113.442 168.945 110.466 167.301 107.491C166.891 106.768 166.497 106.028 166.087 105.305C165.789 104.774 165.503 104.177 165.015 103.791C164.176 103.128 162.783 103.445 162.362 104.451C162.144 104.963 162.196 105.542 162.278 106.069C162.281 106.118 162.283 106.151 162.319 106.199C162.321 106.232 162.341 106.281 162.359 106.313C165.462 112.224 168.741 118.041 172.037 123.84C175.37 129.72 178.766 135.546 182.292 141.315C182.755 142.084 183.206 143.22 184.185 143.46C185.197 143.697 186.409 142.859 186.529 141.838L186.53 141.854ZM176.804 146.17C177.954 146.216 178.938 145.192 178.753 144.057C178.647 143.415 178.296 142.838 177.996 142.275C177.62 141.55 177.227 140.842 176.851 140.117C176.047 138.654 175.259 137.173 174.455 135.709C171.242 129.888 167.916 124.141 164.784 118.282C163.19 115.304 161.677 112.305 160.212 109.269C159.869 108.542 159.508 107.8 159.149 107.09C158.903 106.59 158.606 106.093 158.091 105.825C157.198 105.348 155.928 105.774 155.605 106.758C155.451 107.232 155.484 107.762 155.563 108.256C155.567 108.322 155.573 108.405 155.612 108.503C156.945 111.297 158.197 114.112 159.676 116.831C161.305 119.84 162.951 122.848 164.597 125.855C167.868 131.806 171.139 137.756 174.41 143.706C174.934 144.672 175.572 146.129 176.855 146.184L176.804 146.17ZM170.695 143.833C170.695 143.833 170.687 143.701 170.683 143.634C169.603 140.908 168.2 138.351 166.847 135.774C165.4 133.036 163.939 130.333 162.445 127.632C159.491 122.244 156.488 116.876 153.549 111.47C153.12 110.699 152.548 109.77 151.538 109.831C150.527 109.893 149.617 110.762 149.713 111.804C149.744 112.3 149.971 112.769 150.197 113.204C150.518 113.832 150.837 114.428 151.173 115.039C151.886 116.375 152.599 117.711 153.329 119.046C156.249 124.419 159.267 129.754 162.139 135.163C163.585 137.884 165.015 140.622 166.379 143.381C166.834 144.301 167.232 145.64 168.241 146.11C169.13 146.521 170.254 146.137 170.579 145.203C170.735 144.761 170.723 144.297 170.695 143.833ZM158.993 147.903C159.86 147.684 160.485 147.031 160.361 146.075C160.295 145.547 160.068 145.095 159.841 144.644C159.482 143.934 159.123 143.225 158.748 142.517C157.319 139.795 155.842 137.109 154.3 134.444C153.76 133.496 153.191 132.052 151.979 131.81C150.935 131.591 149.773 132.426 149.756 133.508C149.753 134.006 149.948 134.476 150.174 134.911C150.513 135.572 150.885 136.214 151.241 136.874C151.989 138.241 152.737 139.609 153.468 140.977C154.311 142.538 155.17 144.081 156.029 145.641C156.348 146.236 156.622 146.918 157.115 147.369C157.573 147.79 158.147 147.938 158.747 147.952C158.846 147.946 158.912 147.941 158.976 147.904L158.993 147.903ZM150.814 150.33C151.657 149.979 152.21 149.247 152.037 148.31C151.84 147.259 151.082 146.274 150.561 145.359C149.89 144.17 149.203 142.982 148.532 141.793C147.862 140.62 147.24 139.412 146.523 138.275C145.989 137.427 145.125 136.881 144.117 137.258C143.125 137.618 142.967 138.575 143.058 139.517C143.062 139.583 143.067 139.666 143.09 139.764C144.079 142.081 145.456 144.224 146.719 146.407C147.034 146.937 147.333 147.483 147.648 148.013C147.962 148.542 148.231 149.124 148.626 149.615C149.165 150.28 149.954 150.681 150.798 150.347L150.814 150.33Z" fill="white"/>
<path d="M201.852 79.3425L202.5 80.1507L201.851 80.6888L200.772 79.3418L201.852 79.3425Z" fill="#ED6B2D"/>
<path d="M204.093 111.481C204.185 111.891 203.701 112.136 203.413 112.32C200.773 114.01 198.153 115.732 195.532 117.454C194.781 117.948 194.045 118.425 193.294 118.92C192.655 119.341 191.996 119.714 191.412 120.215C191.254 120.357 190.974 120.657 190.722 120.622C190.422 120.607 190.077 120.13 189.914 119.907C189.515 119.366 189.229 118.752 188.926 118.155C188.951 117.738 189.39 117.579 189.709 117.36C190.379 116.903 191.032 116.432 191.686 115.976C192.976 115.067 194.284 114.156 195.576 113.263C196.866 112.353 198.175 111.459 199.482 110.548C200.009 110.184 200.518 109.82 201.062 109.471C201.35 109.288 201.684 109.035 202.014 108.998C202.163 108.989 202.282 109.031 202.44 109.171C202.738 109.419 202.959 109.771 203.194 110.089C203.484 110.487 203.963 110.973 204.076 111.465L204.093 111.481Z" fill="#EE417E"/>
<path d="M199.881 105.373C199.954 105.485 200.259 105.849 200.219 106.001C200.179 106.169 199.856 106.322 199.728 106.413C199.122 106.832 198.5 107.252 197.894 107.672C195.502 109.33 193.109 110.988 190.717 112.646C190.047 113.103 189.393 113.558 188.723 114.014C188.389 114.251 188.053 114.471 187.718 114.707C187.607 114.797 187.292 115.082 187.141 115.058C186.941 115.037 186.599 114.343 186.472 114.168C186.289 113.897 186.089 113.61 185.921 113.304C185.554 112.728 185.201 112.135 184.834 111.559C184.719 111.034 184.978 110.918 185.392 110.627C185.997 110.191 186.603 109.772 187.208 109.336C188.371 108.501 189.518 107.683 190.68 106.848C191.891 105.993 193.101 105.121 194.311 104.25C194.869 103.85 195.409 103.452 195.968 103.069C196.27 102.851 196.573 102.633 196.875 102.415C197.05 102.288 197.27 102.075 197.468 102.047C197.747 101.996 197.923 102.418 198.068 102.625C198.249 102.863 198.414 103.119 198.579 103.375C199.035 104.029 199.457 104.684 199.88 105.357L199.881 105.373Z" fill="#EE417E"/>
<path d="M194.839 97.6323C195.062 98.0176 195.618 98.6818 195.547 99.1515C195.51 99.3698 195.303 99.5154 195.128 99.6424C194.778 99.8964 194.411 100.151 194.061 100.405C193.376 100.896 192.691 101.386 192.007 101.877C190.653 102.84 189.315 103.803 187.977 104.765C186.48 105.837 184.985 106.942 183.471 107.998C183.376 108.07 183.234 108.195 183.119 108.219C182.937 108.23 182.896 108.116 182.77 107.958C182.516 107.607 182.279 107.256 182.057 106.887C181.634 106.215 181.227 105.542 180.82 104.869C180.975 104.41 181.325 104.156 181.722 103.85C182.357 103.362 182.993 102.875 183.628 102.387C184.961 101.359 186.295 100.33 187.646 99.3171C188.836 98.3969 190.026 97.4602 191.234 96.5555C191.742 96.1755 192.405 95.6032 192.999 95.5172C193.164 95.5072 193.282 95.5332 193.456 95.6556C193.716 95.8392 193.899 96.1106 194.064 96.3664C194.339 96.7819 194.598 97.2148 194.84 97.6488L194.839 97.6323Z" fill="#EE417E"/>
<path d="M190.624 91.4602C190.79 91.7326 191.281 92.1514 191.118 92.4772C191.044 92.6312 190.835 92.7437 190.707 92.8346C190.437 93.0339 190.168 93.2497 189.882 93.4666C187.5 95.2904 185.099 97.0821 182.735 98.9214C182.195 99.3366 181.672 99.7507 181.148 100.165C180.641 100.561 180.138 101.041 179.576 101.358C179.334 101.489 179.06 101.622 178.817 101.454C178.435 101.194 178.314 100.57 178.108 100.184C177.863 99.7168 177.356 99.299 177.256 98.7566C177.177 98.2794 177.588 97.9219 177.921 97.6524C179.046 96.7528 180.26 95.9475 181.403 95.0635C183.944 93.1303 186.431 91.1172 189.009 89.2317C189.805 89.7483 190.126 90.6594 190.607 91.4612L190.624 91.4602Z" fill="#EE417E"/>
<path d="M186.994 85.6319C187.341 86.1426 187.288 86.3619 186.815 86.773C186.261 87.2389 185.672 87.6571 185.1 88.0908C182.909 89.77 180.735 91.4648 178.526 93.1285C177.985 93.5271 177.445 93.9422 176.905 94.3408C176.554 94.5948 176.257 94.8955 175.924 95.1651C175.638 95.382 175.494 95.4738 175.258 95.1392C175.021 94.8046 174.832 94.4172 174.611 94.0651C174.427 93.7771 174.175 93.46 174.137 93.1133C174.071 92.5688 174.613 92.1868 174.995 91.9142C176.142 91.0964 177.271 90.2631 178.399 89.4132C180.799 87.6049 183.123 85.6517 185.651 84.0351C186.411 84.2381 186.589 84.9752 187.009 85.5978L186.994 85.6319Z" fill="#EE417E"/>
<path d="M185.145 69.1895C185.179 69.47 184.87 69.8544 184.698 70.0311C184.039 70.6862 183.11 70.427 182.291 70.3606C181.272 70.2731 180.255 70.2187 179.224 70.215C175.134 70.1983 171.069 70.8614 167.125 71.8663C163.869 72.7128 160.677 73.7882 157.681 75.3502C151.947 78.3588 147.106 83.1912 144.511 89.1665C143.098 92.4271 142.412 95.9093 142.163 99.4481C142.039 101.234 142.033 103.046 142.092 104.837C142.152 106.645 142.183 108.505 142.507 110.28C142.836 112.138 143.427 113.931 144.18 115.647C144.935 117.396 145.914 119.015 146.75 120.725C147.17 121.614 147.623 122.501 148.026 123.39C148.334 124.086 148.446 124.827 148.005 125.502C147.487 126.282 146.724 126.577 145.84 126.249C145.126 125.993 144.485 125.567 143.742 125.38C142.477 125.074 141.696 125.887 141.178 126.932C140.732 127.807 140.356 128.727 139.946 129.633C139.741 130.078 139.552 130.521 139.345 130.95C139.271 131.104 138.923 131.939 138.702 131.587C138.648 131.507 138.669 131.306 138.664 131.224C138.647 130.959 138.631 130.694 138.615 130.429C138.583 129.899 138.552 129.386 138.536 128.855C138.472 127.812 138.441 126.75 138.344 125.709C138.257 124.55 137.719 123.353 136.338 123.604C135.681 123.727 135.121 124.093 134.56 124.427C134.03 124.741 133.515 125.006 132.925 125.141C133.239 123.759 134.154 122.673 134.998 121.525C135.997 120.184 136.959 118.796 137.527 117.199C137.797 116.451 137.966 115.676 138 114.876C138.059 113.925 137.853 113.007 137.713 112.068C137.39 110.044 137.2 108.011 137.125 105.971C136.906 99.652 137.853 93.0957 140.424 87.2714C142.688 82.1473 146.257 77.7249 150.775 74.3915C156.565 70.1329 163.707 67.321 170.909 66.8656C174.883 66.6235 178.852 67.113 182.661 68.2439C183.355 68.4509 184.079 68.6062 184.759 68.8639C184.912 68.9211 185.099 68.9762 185.126 69.1574L185.145 69.1895Z" fill="#C6684E"/>
<path d="M183.442 79.698C183.646 80.0512 184.008 80.5278 183.868 80.9685C183.685 81.5115 182.927 81.8901 182.497 82.1988C181.861 82.6697 181.225 83.1406 180.59 83.628C177.889 85.6707 175.247 87.8594 172.436 89.7425C172.061 89.5826 171.89 89.2274 171.733 88.838C171.539 88.3845 171.33 87.9485 171.104 87.5135C170.896 87.1106 170.685 86.6415 170.908 86.2124C171.054 85.8877 171.374 85.6688 171.643 85.4529L172.578 84.6979C174.986 82.7562 177.34 80.7512 179.712 78.7619C180.249 78.3136 180.906 77.6254 181.577 77.4516C181.724 77.4094 181.841 77.4354 181.982 77.5598C182.244 77.76 182.427 78.0479 182.61 78.3194C182.92 78.7659 183.181 79.2319 183.474 79.6795L183.442 79.698Z" fill="#EE417E"/>
<path d="M185.239 138.659C185.777 139.574 186.678 140.716 186.531 141.855C186.41 142.876 185.198 143.714 184.187 143.477C183.225 143.236 182.772 142.084 182.294 141.332C178.768 135.563 175.372 129.737 172.038 123.857C168.743 118.058 165.464 112.241 162.361 106.33C162.342 106.298 162.323 106.249 162.321 106.216C162.319 106.183 162.299 106.134 162.28 106.086C162.198 105.559 162.146 104.98 162.364 104.468C162.785 103.462 164.162 103.146 165.016 103.808C165.505 104.194 165.791 104.791 166.089 105.322C166.499 106.045 166.893 106.785 167.303 107.508C168.947 110.483 170.574 113.459 172.265 116.397C175.686 122.355 179.172 128.275 182.642 134.214C183.514 135.706 184.368 137.183 185.24 138.676L185.239 138.659Z" fill="black"/>
<path d="M178.737 144.056C178.923 145.191 177.955 146.231 176.788 146.169C175.505 146.114 174.868 144.657 174.344 143.692C171.073 137.742 167.801 131.791 164.53 125.841C162.884 122.833 161.239 119.825 159.609 116.817C158.131 114.098 156.878 111.266 155.545 108.488C155.506 108.391 155.501 108.308 155.497 108.242C155.434 107.747 155.385 107.218 155.539 106.743C155.861 105.76 157.131 105.333 158.025 105.811C158.54 106.078 158.836 106.576 159.082 107.076C159.442 107.802 159.803 108.528 160.146 109.255C161.611 112.29 163.123 115.29 164.717 118.267C167.85 124.126 171.175 129.874 174.388 135.695C175.192 137.158 175.997 138.638 176.784 140.103C177.177 140.81 177.57 141.534 177.93 142.26C178.23 142.824 178.581 143.401 178.686 144.042L178.737 144.056Z" fill="black"/>
<path d="M170.722 41.1497C170.782 41.5948 170.744 42.0625 170.688 42.498C170.614 43.2006 170.525 43.9207 170.451 44.6232C170.264 46.1804 170.058 47.722 169.838 49.2811C169.734 50.0354 169.615 50.8072 169.511 51.5614C169.419 52.2319 169.381 52.9655 169.187 53.6089C168.885 54.6412 167.789 55.2065 166.831 54.5003C165.927 53.8407 166.439 52.4134 166.583 51.5071C167.037 48.6041 167.458 45.6865 167.896 42.7844C165.678 44.8475 163.69 47.1294 161.737 49.4423C160.791 50.5636 159.862 51.6839 158.899 52.7897C158.139 53.6836 157.37 54.6945 156.287 55.2092C154.01 56.2953 152.326 53.7552 151.072 52.2693C149.118 49.9285 147.146 47.5722 145.192 45.2314C144.225 44.0936 143.274 42.9383 142.323 41.7829C141.677 41.0078 141.05 40.2649 140.234 39.6996C140.31 41.2075 140.584 42.7033 140.956 44.1764C141.376 45.8794 141.795 47.5824 142.248 49.2833C143.092 52.5061 144.132 55.6672 144.764 58.9362C145.126 60.7922 145.471 63.1812 143.722 64.4844C142.96 65.0627 141.939 65.2246 141.009 65.2315C139.463 65.2259 137.93 64.8872 136.447 64.562C134.881 64.2253 133.302 63.9558 131.753 63.6181C130.455 63.3315 129.157 63.0283 127.837 62.9093C128.046 63.0628 128.303 63.1967 128.494 63.3346C129.083 63.7308 129.673 64.1271 130.244 64.5078C132.72 66.1353 135.242 67.6936 137.868 69.0627C138.349 69.316 138.893 69.5155 139.358 69.7863C139.738 70.0125 139.991 70.3461 139.985 70.7952C139.987 71.9253 138.902 72.6563 137.868 72.3369C137.225 72.1435 136.652 71.7462 136.082 71.3986C135.426 70.9899 134.754 70.5987 134.099 70.2065C132.77 69.4065 131.458 68.6056 130.13 67.8056C128.818 67.0047 127.491 66.2378 126.24 65.35C125.65 64.9372 125.073 64.4738 124.53 64.0083C124.056 63.605 123.483 63.1912 123.166 62.6287C122.588 61.6002 123 60.179 124.175 59.8249C124.73 59.6581 125.334 59.7542 125.901 59.7862C126.636 59.8411 127.387 59.8951 128.125 59.9997C129.666 60.205 131.201 60.5603 132.732 60.8659C134.246 61.1725 135.743 61.4636 137.258 61.7702C138.015 61.9235 138.771 62.0603 139.529 62.2136C140.016 62.3002 140.522 62.419 141.037 62.4209C141.668 62.4156 141.974 62.2474 142.068 61.6101C142.215 60.471 141.922 59.2091 141.672 58.1107C141.318 56.6696 140.834 55.2698 140.481 53.8453C139.773 50.9466 138.885 48.1087 138.193 45.209C137.857 43.7835 137.57 42.3384 137.448 40.8832C137.355 39.9083 137.119 38.7592 137.41 37.8107C137.699 36.8291 138.672 36.1549 139.686 36.1596C140.734 36.1622 141.479 36.9313 142.201 37.6019C144.385 39.6295 146.225 41.9939 148.158 44.2695C149.161 45.4549 150.165 46.6569 151.168 47.8424C152.082 48.9335 152.964 50.0432 153.926 51.0982C154.247 51.4609 154.84 52.1893 155.348 52.0587C155.938 51.923 156.534 51.0723 156.922 50.6165C158.784 48.4421 160.559 46.2065 162.49 44.0778C163.487 42.9866 164.504 41.944 165.59 40.9471C166.408 40.1826 167.332 39.2454 168.532 39.3053C169.632 39.3546 170.556 40.0628 170.723 41.1662L170.722 41.1497Z" fill="black"/>
<path d="M170.667 143.634C170.667 143.634 170.692 143.782 170.679 143.833C170.707 144.297 170.719 144.761 170.563 145.203C170.237 146.137 169.097 146.522 168.225 146.11C167.215 145.64 166.818 144.301 166.363 143.381C164.998 140.622 163.585 137.883 162.123 135.163C159.234 129.755 156.233 124.42 153.312 119.046C152.583 117.711 151.87 116.375 151.157 115.039C150.837 114.427 150.501 113.816 150.181 113.204C149.955 112.769 149.744 112.3 149.697 111.804C149.601 110.779 150.511 109.893 151.521 109.831C152.531 109.77 153.103 110.699 153.532 111.47C156.471 116.876 159.473 122.228 162.428 127.632C163.906 130.334 165.385 133.053 166.83 135.774C168.184 138.351 169.586 140.908 170.666 143.618C170.666 143.618 170.667 143.634 170.668 143.651L170.667 143.634Z" fill="black"/>
<path d="M160.361 146.074C160.469 147.031 159.86 147.667 158.993 147.903C158.929 147.94 158.847 147.961 158.763 147.95C158.148 147.937 157.573 147.79 157.132 147.368C156.638 146.899 156.364 146.218 156.046 145.639C155.187 144.079 154.345 142.535 153.485 140.975C152.737 139.608 151.989 138.241 151.257 136.872C150.901 136.213 150.53 135.57 150.19 134.91C149.964 134.475 149.77 134.005 149.773 133.506C149.773 132.425 150.952 131.589 151.996 131.808C153.207 132.05 153.777 133.495 154.317 134.442C155.859 137.107 157.336 139.793 158.765 142.515C159.14 143.223 159.499 143.933 159.858 144.642C160.086 145.11 160.313 145.562 160.377 146.073L160.361 146.074Z" fill="black"/>
<path d="M152.038 148.308C152.211 149.245 151.658 149.977 150.815 150.327C149.955 150.679 149.182 150.26 148.643 149.595C148.248 149.121 147.963 148.54 147.664 147.993C147.365 147.446 147.05 146.917 146.735 146.387C145.472 144.204 144.095 142.061 143.106 139.744C143.068 139.663 143.063 139.581 143.075 139.497C142.984 138.555 143.142 137.598 144.134 137.238C145.141 136.861 146.022 137.406 146.539 138.255C147.256 139.392 147.879 140.6 148.548 141.773C149.236 142.961 149.906 144.15 150.577 145.339C151.098 146.255 151.856 147.239 152.053 148.291L152.038 148.308Z" fill="black"/>
<path d="M119.535 166.978C119.93 168.001 120.536 169.227 120.139 170.349C119.673 171.69 118.259 171.959 117.045 171.667C114.549 171.071 112.503 169.401 110.637 167.703C108.526 165.787 106.507 163.75 104.568 161.657C100.797 157.599 97.3427 153.272 93.7615 149.053C90.3415 145.023 86.7296 141.121 82.3736 138.095C78.2438 135.239 73.593 132.83 68.5637 132.122C67.3066 131.95 66.0556 131.876 64.7951 131.92C64.0334 131.966 63.1774 132.101 62.4222 131.981C62.0022 131.907 61.9318 131.845 61.9056 131.414C61.8592 130.653 61.9785 129.881 62.0666 129.144C62.1086 128.743 62.1494 128.325 62.2411 127.92C62.2943 127.701 62.364 127.481 62.4437 127.426C62.5235 127.371 62.7884 127.355 63.0057 127.375C63.4217 127.383 63.8243 127.441 64.2433 127.499C65.5987 127.649 66.9591 127.882 68.2914 128.2C70.8879 128.806 73.3868 129.718 75.8128 130.8C80.8045 133.072 85.4907 136.061 90.0008 139.16C94.6154 142.336 99.0454 145.756 103.351 149.316C105.555 151.126 107.73 152.988 109.888 154.851C111.906 156.606 114.054 158.304 115.742 160.378C117.359 162.357 118.609 164.591 119.551 166.961L119.535 166.978Z" fill="#C6684E"/>
<path d="M109.797 118.173C109.841 118.619 109.052 118.766 108.742 118.852C107.843 119.106 106.929 119.378 106.05 119.681C105.626 119.823 105.187 119.983 104.766 120.158C104.457 120.276 104.119 120.447 103.781 120.367C103.192 120.237 102.762 119.465 102.404 119.039C101.884 118.422 101.365 117.805 100.83 117.206C96.5488 112.415 91.3851 108.408 85.4791 105.859C82.4574 104.547 79.1739 103.85 75.8742 104.25C72.7566 104.64 69.8641 105.996 67.5138 108.067C62.7676 112.279 60.1242 118.54 59.2204 124.711C58.667 128.451 58.5668 132.263 58.7958 136.022C58.9129 137.943 59.1127 139.859 59.3953 141.77C59.6759 143.647 60.1047 145.499 60.467 147.355C60.5399 147.733 60.656 148.275 60.2727 148.531C59.8573 148.805 59.1928 148.812 58.7146 148.875C58.3192 148.932 57.7923 149.014 57.5052 148.666C57.3265 148.461 57.2586 148.166 57.2094 147.903C57.1139 147.427 57.0515 146.948 56.9726 146.471C56.2428 142.676 55.1682 138.952 54.5864 135.132C54.3069 133.271 54.1422 131.386 54.2434 129.502C54.2414 129.469 54.2384 129.419 54.2364 129.386C54.0195 125.826 53.8688 122.261 54.2501 118.698C54.6178 115.185 55.4212 111.729 56.8182 108.469C57.9389 105.858 59.5032 103.436 61.7537 101.637C63.9089 99.91 66.5048 98.871 69.2023 98.4075C76.1614 97.2356 83.1993 99.2666 89.5208 102.089C95.4329 104.737 100.733 108.52 105.363 113.041C106.547 114.199 107.666 115.377 108.771 116.606C109.11 116.985 109.811 117.573 109.86 118.119L109.797 118.173Z" fill="#C6684E"/>
<path d="M66.3371 168.969C66.5305 169.689 66.2397 170.371 65.8269 170.962C65.0158 172.108 63.9071 173.007 62.6664 173.647C59.8959 175.096 56.5812 175.796 53.454 175.754C52.0134 175.842 50.5477 176.064 49.1125 175.969C48.1285 175.912 47.2743 175.532 46.7406 174.684C46.0036 173.499 45.8083 171.932 45.7421 170.573C45.6699 169.115 45.7799 167.646 45.7905 166.182C45.7984 165.766 45.8042 165.317 46.0489 164.97C46.2937 164.623 46.7152 164.447 47.1076 164.34C48.4804 163.957 49.8943 163.705 51.2826 163.305C52.671 162.904 54.0232 162.456 55.3724 161.959C55.7141 161.838 56.0382 161.702 56.3789 161.565C56.5901 161.486 56.8626 161.319 57.0945 161.305C57.376 161.288 57.508 161.546 57.6847 161.718C57.8965 161.921 58.1571 162.105 58.4446 162.187C59.4945 162.505 60.4853 161.581 60.4383 160.536C60.406 160.007 60.1447 159.54 59.9489 159.054C59.6581 158.373 59.4814 157.653 59.3211 156.931C59.0457 155.685 58.7878 154.454 58.3975 153.231C58.2513 152.742 58.2301 152.394 58.6942 152.1C59.1262 151.824 59.6802 151.641 60.2005 151.725C61.3241 151.89 61.7385 152.961 62.0298 153.924C62.4664 155.36 62.8541 156.816 63.2254 158.272C63.9639 161.119 64.654 163.986 65.5727 166.789C65.8168 167.522 66.1437 168.25 66.3381 168.986L66.3371 168.969Z" fill="white"/>
<path d="M51.4678 136.603C51.5382 137.214 51.6241 137.807 51.4276 138.401C51.2165 139.028 50.7139 139.508 50.3126 140.014C49.9113 140.521 49.5286 141.059 49.1625 141.597C46.0071 146.277 44.4378 151.89 43.4936 157.399C42.9902 160.322 42.6886 163.282 42.5535 166.249C42.5151 166.983 42.4933 167.715 42.4714 168.448C42.4615 168.831 42.5351 169.491 42.2386 169.808C41.9732 170.09 41.4994 169.953 41.1662 169.94C40.7989 169.913 40.4014 169.937 40.0612 169.808C39.6537 169.667 39.6149 169.303 39.6083 168.921C39.6199 167.475 39.7806 166.019 39.9102 164.598C40.0367 163.128 40.1972 161.672 40.3744 160.215C40.7463 157.317 41.2351 154.429 41.8915 151.563C42.547 148.681 43.3877 145.838 44.4155 143.066C45.3581 140.532 46.4517 138.022 47.8907 135.724C48.6335 134.549 49.5003 133.499 50.4012 132.463C50.6344 132.2 51.0596 131.542 51.0709 132.273C51.0936 132.92 51.1837 133.579 51.2406 134.24C51.3222 135.033 51.3862 135.81 51.4678 136.603Z" fill="#C6684E"/>
<path d="M44.8351 178.326C45.6353 179.458 44.7778 181.205 44.0726 182.179C43.1973 183.362 41.9735 184.285 40.7594 185.09C39.5142 185.93 38.1938 186.626 36.8 187.209C34.0776 188.356 31.1925 189.013 28.2797 189.49C27.5551 189.601 26.8139 189.712 26.0883 189.806C23.0343 189.876 19.8731 189.819 17.0064 188.598C14.9588 187.725 12.6269 186.006 13.4039 183.482C13.8065 182.178 14.8584 181.166 15.8522 180.291C16.9578 179.343 18.1368 178.507 19.4066 177.798C21.8324 176.42 24.5378 175.541 27.3046 175.123C28.704 174.905 30.1096 174.786 31.5377 174.765C32.2683 174.754 32.9833 174.76 33.6994 174.783C34.3161 174.812 35.1256 174.729 35.6902 174.994C36.2362 175.227 36.2227 175.826 36.4828 176.276C36.7615 176.757 37.2453 177.06 37.8073 177.009C38.3703 176.975 38.8636 176.612 39.1148 176.099C39.4087 175.466 39.3155 174.757 39.3083 174.092C39.3057 173.777 39.2023 173.168 39.5977 173.111C39.8285 173.08 40.0818 173.148 40.3136 173.134C40.562 173.118 40.8105 173.103 41.0579 173.072C41.4057 173.05 42.0121 172.914 42.3263 173.161C42.4844 173.3 42.4997 173.549 42.5274 173.73C42.6158 174.09 42.7053 174.467 42.8268 174.825C43.0318 175.461 43.3008 176.06 43.6352 176.638C43.9716 177.249 44.4344 177.752 44.834 178.31L44.8351 178.326Z" fill="white"/>
<path d="M36.5415 166.051C36.5586 166.333 36.4609 166.638 36.4274 166.906C36.3854 167.307 36.36 167.708 36.351 168.107C36.3223 169.272 36.3046 170.62 35.1817 171.286C34.7964 171.509 34.3369 171.604 33.8838 171.532C33.2786 171.419 32.8382 171.014 32.398 170.608C32.1345 170.375 31.8866 170.124 31.6387 169.873C31.3731 169.607 31.0412 169.345 30.8555 169.024C30.5758 168.525 30.8994 168.107 31.2963 167.8C32.6122 166.756 34.2613 166.273 35.8464 165.828C36.0109 165.801 36.2585 165.769 36.394 165.811C36.5295 165.852 36.5314 165.886 36.5405 166.035L36.5415 166.051Z" fill="white"/>
</svg>
